<?xml version="1.0" encoding="UTF-8"?>
<svg id="Layer_1" xmlns="http://www.w3.org/2000/svg" version="1.1" viewBox="0 0 567 567">
  <!-- Generator: Adobe Illustrator 29.0.0, SVG Export Plug-In . SVG Version: 2.1.0 Build 186)  -->
  <defs>
    <style>
      .st0 {
        fill: #fff;
      }
    </style>
  </defs>
  <path class="st0" d="M477.9,222.9l-5.9-1.4c-9.4-2.2-19.3-10.2-25.3-20.3-2.8-4.3-4.8-9.2-5.9-14.4-20.9-16-46.4-24.5-75.8-25.4-40.5-1.2-79.8,16.9-92.1,34.9h35.9l-1.6,3.9c-5.5,13.2-25.7,18.1-35.9,14.4-5.9-2.2-8.6-6.8-7.2-12.7H58.5v-5.7h207.8c11.3-20.8,53.8-42,98.8-40.6,28.6.9,53.6,8.7,74.6,23.3,0-.9,0-1.8,0-2.7,0-23,15.9-41.7,35.4-41.7s20.7,5.8,27.6,15.9c4.3,6.4,6.4,14.7,5.7,22.8-1.3,17.1-12.2,27.3-21.9,28.2-10.9,1-20.1-2.6-25.9-10.1-5.5-7.1-6.9-16.8-3.8-25.2l1.4-3.7,3.1,2.5c4.8,3.8,22.8,13.1,37.2,12.3l.3,5.7c-13.6.8-29.7-6.3-37.6-11.1-1,5.7.4,11.6,3.9,16.2,4.6,5.9,12,8.8,20.9,7.9,9.4-.9,15.9-12.4,16.7-23,.5-6.9-1.2-13.9-4.8-19.2-5.7-8.5-14.1-13.4-22.8-13.4-16.4,0-29.8,16.1-29.8,36s.2,4.9.6,7.3c.7.5,1.4,1.1,2,1.6,18.1,14.9,26.3,30.5,27.1,32.2l2.8,5.5ZM449,193.6c.7,1.6,1.5,3.1,2.5,4.5h0c4,6.9,9.3,11.7,14.1,14.6-3.4-5-8.8-11.9-16.6-19.1ZM269.9,202c0,.2-.2.5-.2.7-.7,2.2-.9,5,3.4,6.6,6.7,2.4,20-.2,26.3-7.3h-29.4Z"/>
  <path class="st0" d="M275.7,350.8c-12.5,0-28.6-3.6-47-16.1l-73-45,3-4.8,73.1,45.1c38.5,26.1,65.5,11,68.5,9.2,8.2-5,16-10.2,23.5-15.2,12.8-8.6,24.9-16.6,36.7-22-4.1-2.9-8-6.8-11.6-12.1l4.7-3.2c4.1,6,8.6,10,13.2,12.6,12.9-4.8,25.6-5.9,38.8-.7l5.6,2.2-5.3,2.9c-.3.1-20.3,10.7-39.5,1.7-12.3,5-25.2,13.6-39.6,23.2-7.5,5-15.3,10.2-23.6,15.3-1.8,1.1-11.8,6.8-27.5,6.8ZM375,302.6c8,2,15.6.7,21-.9-7-1.4-13.9-1-21,.9Z"/>
  <path class="st0" d="M231.3,264.2c-41.1,0-80.4-6.2-117.8-18.6l1.8-5.4c64.4,21.4,135.1,24.1,210.1,7.9,52.3-11.3,91.2-28.8,105.6-35.8l.8-.4c10.8-5.2,16.9-11.9,16-17.6-.4-2.6-3.8-11.3-29.3-14.5-45.7-3.3-66.2,13.4-66.4,13.5l-3.7-4.3c.9-.8,22.3-18.4,70.5-14.9h.1c27.6,3.4,33.3,13.5,34.2,19.2,1.4,8.5-5.6,17.1-19.1,23.6l-.8.4c-18,8.8-55.9,25.3-106.9,36.3-32.6,7-64.5,10.6-95.3,10.6Z"/>
  <path class="st0" d="M393.1,432.4c-11.1,0-25.3-3-42.6-12.3-42.6-22.9-112.1-63.9-112.8-64.3l2.9-4.9c.7.4,70.1,41.3,112.6,64.2,34.2,18.4,54.8,10.6,62.7,5.9L78.8,267.5l1.9-5.3c121.3,33.2,221.4,17.3,257.5,4.2l.6-.2h.7c50.2,5.8,78.8,19.6,78.4,37.9-.4,19-32.1,35.9-80.9,44.8l98.9,20c.4-5,2-8.2,3.6-10.1,2.2-2.7,4.8-3.6,6.3-3.7,2.3,0,4.6,1,6.2,3,3.1,3.7,3.9,10,2.4,17.4l-.6,2.8-12.1-2.4c0,.6.2,1.1.3,1.7.9,5.1,5.8,15.4,14.9,14.2,4.7-.6,9.6-4.9,13.1-11.6,25.2-48.7,6.6-111-4.1-134.5-30,17.1-60.9,23.8-92.1,19.8-24.9-3.2-44.8-12.8-55.1-20.7l3.5-4.5c9.3,7.1,28.5,16.5,52.3,19.6,30.9,4,61.5-3,91.2-20.6l2.6-1.6,1.4,2.7c10.7,21.7,32.7,89.4,5.4,142.3-4.4,8.5-10.7,13.8-17.4,14.6-5.6.7-10.8-1.3-14.9-5.9-3.1-3.5-5.5-8.3-6.3-12.9-.2-1.4-.4-2.7-.5-3.9l-114.9-23.2c-8.2,1.1-16.8,2-25.7,2.7h-.7c0,0-.6-.2-.6-.2-1-.4-24.5-10.2-32.5-14.7l2-5.2,57.8,11.7c24.2-3.4,45-8.6,61.1-15.3,18.8-7.9,29.7-17.5,29.9-26.4.3-14.5-27.6-26.7-72.7-32-24.4,8.7-62.2,14.5-101.1,15.5-42.3,1.1-86.6-3.3-129.7-12.6l317.9,144.7-3,2.9c-.6.6-10.7,9.9-30.4,9.9ZM441.4,369.9l7.9,1.6c.6-5-.4-8.4-1.7-9.9-.5-.6-1.1-.9-1.7-1-.4.1-4.2,1.6-4.5,9.3ZM445.9,360.7h0,0ZM285.8,344.2c4.5,2,8.3,3.5,9.7,4.1,2.5-.2,5.1-.4,7.5-.7l-17.3-3.5Z"/>
</svg>