<?xml version="1.0" encoding="UTF-8"?>
<svg id="Layer_1" xmlns="http://www.w3.org/2000/svg" version="1.1" viewBox="0 0 567 567">
  <!-- Generator: Adobe Illustrator 29.0.0, SVG Export Plug-In . SVG Version: 2.1.0 Build 186)  -->
  <defs>
    <style>
      .st0 {
        fill: #fff;
      }
    </style>
  </defs>
  <path class="st0" d="M522.1,391.6h-62.9l1.4-3.8c1.4-3.9,4.8-10.9,11.4-12.8l1.6,5.4c-2.2.7-4.3,2.6-5.9,5.5h45.6c-1.9-2.8-5-6.2-9.3-6.2h-12.8c0,0-.6-.3-.6-.3l-122.8-66.6v-1.7c.3-32.1-41.3-77.9-97.4-91.2l1.3-5.5c27.2,6.4,53.1,20.8,72.8,40.3,18,17.8,28.4,37.7,28.9,54.7l119.2,64.6h11.3c11.4,0,16.5,13,16.7,13.6l1.5,3.8Z"/>
  <path class="st0" d="M45.6,391.6l-.7-5.6c25.2-6.3,35.8-48.3,35.9-48.7l1.6-6.7,3.5,6c.2.3,12,19.8,29,30.1,6.3-5.1,11.6-11.3,16.2-18.5,13.1-20.8,17.7-34.9,21.8-47.4,4.2-12.8,7.8-23.9,19.2-38.2l4.4,3.5c-10.8,13.5-14.3,24.1-18.2,36.4-4.2,12.8-8.9,27.3-22.4,48.7-3.7,5.8-8.6,12.3-15.6,18.4,8.4,3.8,17.7,5,27.5.8,20.9-9.1,38.6-31.5,55.7-53.3,2.2-2.8,4.3-5.5,6.5-8.2l4.4,3.5c-2.2,2.7-4.3,5.4-6.5,8.2-17.6,22.3-35.8,45.3-57.9,54.9-11.1,4.8-22.9,4.1-34.7-2-14.1,10.2-35.6,18.2-69.8,18.2ZM84.5,344.6c-1.4,4.4-3.8,10.8-7.2,17.5-5.3,10.4-11.6,18.3-18.6,23.4,21.4-1.4,38.2-6.3,51.4-15.3-3-2-6-4.3-9-7-7.4-6.6-13.1-13.9-16.5-18.7Z"/>
  <path class="st0" d="M236.4,391.6h-64.4l-.2-2.6c0-.7-1.3-18.2,26.4-35.1.9-.5,2.1-1.2,3.7-1.9,1-12.2,9-25.7,24-40.1l3.9,4.1c-12.6,12.2-19.9,23.4-21.9,33.4,3.1-1.3,6.9-2.8,11.1-4.5,30.4-12.1,93.6-37.3,93.6-59.7s-.6-2.4-1.8-3.6c-6.1-5.7-24.1-7.9-41-8.6-4.2,5.1-8.4,7.5-12.8,7.7-10.1.3-17-8.2-17.3-8.6l-3.4-4.3,5.5-.3c2.5-.1,13-.7,25.4-.4,2.9-4.1,6-9.7,9.2-17l.8-1.7h1.9c22.5.3,51.8,10.2,80.4,27,25.2,14.9,45.6,32.6,51.9,45.2l4.1,8.2-117.2-64.5,2.7-5,98.3,54.1c-9.2-10.3-24.8-22.6-42.7-33.1-27-15.9-54.5-25.4-75.8-26.2-2.4,5.2-4.7,9.6-7,13.2,16.2.8,33.8,3.3,40.9,10,2.4,2.2,3.5,4.8,3.5,7.7,0,24.2-50.1,46.2-97.1,65-5.3,2.1-10,4-13.6,5.5,0,1.5.3,3,.6,4.5,4.3,18,28.9,25.7,29.2,25.8l-.8,5.5ZM177.7,385.9h45.6c-.7-.4-1.4-.8-2.1-1.2-10-6.3-16.5-14.2-18.6-23.1-.3-1.1-.5-2.2-.6-3.3-.3.2-.6.3-.9.5-18.3,11.2-22.5,22.3-23.4,27.2ZM249.3,273c2.1,1.2,4.7,2.2,7.5,2.1,1.7,0,3.4-.8,5.2-2.2-4.6,0-9,0-12.7,0Z"/>
  <path class="st0" d="M335,392.6h-29.2c-13.6,0-26.5-7-26.5-14.4v-12c0-7.2,3.6-12.1,10.1-13.9,4.3-1.2,19.5-5.1,25.2-6.6v-8c-1.4,0-2.7-.2-4.1-.3-13.4-.8-24-1.4-29.8-12.9-.3-.7-.7-1.4-1.2-2.1-38.2-2.9-66.8-16.1-89.1-40.9-8.2-9.1-17-22.9-12.8-37.7,3.7-13,16.9-23.8,35.3-29.1,2-.6,4-1.1,6.1-1.5v-15.8c0-14.7,9.2-23.2,25.2-23.2s25.2,13.3,25.2,29.6h-5.7c0-13.2-8.8-23.9-19.6-23.9s-19.6,3-19.6,17.5v14.7c16.4-2.8,34.3-2.5,41.8,3.2,2.5,1.9,3,3.9,3,5.2,0,7.5-3,14.9-8.4,20.8-5,5.5-11.3,8.8-16.9,8.8s-11.2-4.4-16.6-11.7c-4.6-6.2-7.5-13.1-8.4-19.5-1.6.4-3.2.8-4.9,1.3-12.7,3.6-27.7,12.1-31.4,25.2-2.8,9.9,1,20.7,11.5,32.4,20.3,22.5,46.2,35,80.5,38.6-16.2-20-57.4-56.8-71.9-62.9l2.2-5.2c15.6,6.6,62.6,47.9,77.4,68.8,4.4.3,9,.4,13.7.4,13.3,0,21.5,5.3,23.4,15,3.7,0,6.6,1.2,8.5,3.4,2.5,2.8,2.4,6.3,2.3,7.3v3.1c3.5.9,8.2,2.4,12.5,3.6,3.3,1,6.3,1.9,8.4,2.5,6.5,1.8,10.1,6.7,10.1,13.9v12c0,7.4-12.9,14.4-26.5,14.4ZM320.2,338.2v12s-2.2.5-2.2.5c-.2,0-21.9,5.7-27.2,7.1-4,1.1-5.9,3.8-5.9,8.4v12c0,2.5,8.3,8.7,20.8,8.7h29.2c12.5,0,20.8-6.2,20.8-8.7v-12c0-4.6-1.9-7.3-5.9-8.4-2.1-.6-5.2-1.5-8.5-2.5-5.2-1.6-11.2-3.3-14.4-4.1l-2.2-.5v-8h0s.2-1.8-.9-3.1c-.8-.8-2-1.3-3.8-1.4ZM286.2,322.9c4.2,7.4,11.5,8.2,24.6,8.9,1,0,2,.1,3.1.2-1.4-4.2-5.4-8.9-17.5-8.9s-6.9,0-10.2-.2ZM224.8,217.9c1.6,13.2,13.9,26.7,19.4,26.7,7.7,0,19.6-10.7,19.6-23.9-.3-.8-4.2-3.5-14.5-4.3-4.7-.4-13.4-.5-24.5,1.5Z"/>
</svg>