<?xml version="1.0" encoding="UTF-8"?>
<svg id="Layer_1" xmlns="http://www.w3.org/2000/svg" version="1.1" viewBox="0 0 567 567">
  <!-- Generator: Adobe Illustrator 29.0.0, SVG Export Plug-In . SVG Version: 2.1.0 Build 186)  -->
  <defs>
    <style>
      .st0 {
        fill: #fff;
      }
    </style>
  </defs>
  <path class="st0" d="M84,435.2c-8.4,0-14.1-2-16.6-4.8-1.7-1.9-2.2-4.2-1.4-6.4,1.9-4.9,9.9-8.4,22.5-9.8,41.8-4.6,156.7-62.1,199.9-83.8l4.9-2.5,2.5,5.1-4.9,2.5c-47.6,23.8-159,79.6-201.8,84.3-13.3,1.5-17.4,5-17.9,6.2,0,.1,0,.2.2.6,2.1,2.3,12.6,5.3,31.8,0,18.8-5.2,96.2-38,188.3-79.8,95.9-43.6,166.9-78.4,180.8-88.6,4.5-3.3,6.7-6.9,6.3-10.2-.3-2.6-2.3-4.8-5.3-6.1-5-2.1-13.6-1.7-22.7,5.5-8.1,6.4-19.9,14.4-34.2,23.3l-3-4.8c14.1-8.7,25.7-16.6,33.7-22.9,7.2-5.7,18.5-10.3,28.3-6.2,5,2,8.2,6,8.8,10.6.4,3.1-.2,9.3-8.6,15.5-17.2,12.7-108.7,56-181.8,89.2-75.5,34.3-166.9,74-189.1,80.1-8.1,2.2-15.1,3.1-20.8,3.1Z"/>
  <path class="st0" d="M398,316.5c-8.2,0-17-4.8-20.8-15.2l5.3-1.9c3.3,9.4,12,12.7,18.8,11.1,5.9-1.4,11.7-6.7,10.5-17.5-2.5-21.8-18.3-43.2-48.4-65.7-27-20.1-61.8-38.4-95.3-56.1-59.4-31.3-115.5-60.8-118-95.9l5.7-.4c2.3,31.9,57,60.7,115,91.3,69.3,36.5,140.9,74.2,146.8,126.2,1.6,14.5-7,21.8-14.9,23.7-1.5.3-3,.5-4.6.5Z"/>
  <path class="st0" d="M236.9,348c-2.3,0-4.6-.1-6.8-.3l-2.1-.2-.4-2.1c-3-15.3-2.2-30,2-42.3-5.3,2.3-10.9,4.3-16.6,5.9-24.9,7.1-45.5,4.7-57.9-6.6-19.5-17.9-20.8-44.9-3.3-72.2,11-17.2,28.1-32.2,46.9-41.1,3.8-1.8,7.7-3.4,11.5-4.6-3.5-2.2-7.1-4.7-10.6-7.6-29.5-24.5-52.9-70.6-61.3-103.5h-5.9c-11.7.1-18.1-2.6-19.2-8-.7-3.9,1.7-8.3,6.9-12.8,4.5-3.9,10.6-7.4,17.3-10l4.9-1.9-1.1,5.1c-1.1,5.3-.5,12.9,1.5,22h223v5.7h-221.6c8.4,31.5,31.2,76,59.1,99.1,4.9,4.1,9.8,7.4,14.7,9.9,14.1-3.2,27.7-2.4,39.5,2.5l6.3,2.6-6.3,2.6c-12.8,5.2-26.3,4.6-40-1.8-5.3,1.4-10.8,3.3-16.2,5.9-17.9,8.5-34.1,22.7-44.5,39.1-22.8,35.7-5.9,57.3,2.4,64.9,14.7,13.5,39.2,9.2,52.5,5.4,7.3-2.1,14.6-4.9,21.4-8.2,1.5-2.9,3.2-5.6,5.1-8.1,6.6-8.6,15.3-13.8,23.9-14.3l4-.2-1.1,3.8c-1.9,6.8-13.2,15.7-27.7,23-5.6,11.8-7.2,26.8-4.4,42.6,16.3,1,36.7-3.9,60.5-14.4l2.3,5.2c-22.6,9.9-42.3,15-58.7,15ZM255.9,280.1c-4.4,1.8-8.7,5-12.4,9.5.2-.1.4-.3.7-.4,5.5-3.4,9.3-6.5,11.7-9.1ZM228.2,186.4c6.2,1.7,12.4,2.1,18.4,1-5.8-1.3-12-1.6-18.4-1ZM135.1,49.6c-10.8,5.2-16.9,11.8-16.3,14.6.3,1.3,3.4,3.5,13.6,3.4h4.6c-1.4-6.9-2.1-13-1.9-18.1Z"/>
  <path class="st0" d="M381.8,526.5c-4.3,0-9-.8-13.5-2.7-39.6-16.4-98-67.9-173.6-152.9-16.8-18.9-32.6-37.5-46.7-54.4-32.1-27-63.2-53.8-78.7-70.8-4.1-4.5-5.6-9.4-4.1-13.5,1.2-3.3,4.3-5.6,8.2-6.1,6.2-.8,12.8,2.8,17.6,9.7,2.2,3.2,26.3,34.9,61,76.7,9.5,7.9,19,15.9,28.3,23.6,9.9,8.3,19.3,16.1,28.1,23.5l-3.7,4.3c-8.8-7.4-18.2-15.2-28.1-23.5-1.2-1-2.3-1.9-3.5-2.9,8.2,9.6,16.9,19.6,25.8,29.6,51.6,58,123.2,131.4,171.5,151.4,9.1,3.8,19.2,2.4,23.6-1.1,1.5-1.1,2.1-2.4,2-3.6-.2-1.2-1.7-5.6-14.5-10.6-36.9-14.5-131.9-99.2-147.1-117.8l3.9-4.1c15.5,11.7,26.7,19.1,33.1,23.2-1.1-15.8,16.3-36.5,34.5-58.4,8-9.6,16.1-19.3,22.4-28.4-1.8.9-3.6,1.7-5.3,2.4-9.9,4.3-18.3,4.4-23.7,3.7-6.5-.8-11.9-3.3-14.3-6.5-7.1-9.7-1.1-26,5.3-43.3,2-5.4,4-10.9,5.6-16-18.9-6.5-43.2-9.9-72.8-4.8-2.2,2-4,3.7-5.3,4.9-.5.5-.9.9-1.3,1.2-10.7,10.1-23.2,7.4-23.8,7.3l-3.2-.7,1.2-3.1c.4-1,4.2-9.4,22.5-13.4,2.5-.6,4.9-1,7.4-1.5,4.4-3.8,10.1-8.3,17-12.3,14.2-8.3,28.9-12.3,43.8-11.9,9.8.3,16.2,3,19.8,8.3,3.9,5.7,3.6,13.7,1.5,22.5,15.7,6.1,27.5,14,35.5,20.4,4.5,3.6,7,8.2,7.5,13.6.5,4.9-.7,10.2-3.1,15.8,19.1-10,38.1-21.2,38.3-21.3l2.9,4.9c-.3.2-24.3,14.3-45.6,25.1-6.8,11.5-17.2,24-28,36.8-19.1,22.9-38.9,46.6-31.8,59.5l4.8,8.7-8.7-4.8c-.3-.2-4.6-2.6-12.6-7.8,34.2,31.9,94.1,82,121.4,92.7,11.1,4.4,17.2,9.4,18,15.1.5,3.3-1,6.5-4.1,8.9-3.4,2.7-9.3,4.5-15.8,4.5ZM301.5,260.1c-1.6,5.2-3.6,10.7-5.6,16.1-5.6,15.1-11.3,30.8-6.1,38,2.2,3,15.1,7.8,31.1.9,4.1-1.8,8.7-4,13.4-6.3,4.1-7.3,6.5-14,6-19.6-.4-3.9-2.2-7-5.5-9.7-7.5-6.1-18.7-13.6-33.4-19.3ZM75.1,231.6c-.3,0-.6,0-.9,0-1.8.2-3.1,1.1-3.6,2.5-.7,2,.3,4.8,3,7.7,11.4,12.5,31.6,30.6,54.4,50.2-24-29.6-39.8-50.5-41.5-53-3.8-5.5-8.2-7.4-11.3-7.4ZM212.8,255.5c-6.6,1.7-10.6,4-13.1,5.9,3.6-.3,8.5-1.7,13.1-5.9ZM251.4,245.2c17.8,0,33.3,3,46.3,7.4,1.7-7.2,1.9-13.4-.8-17.4-2.5-3.7-7.5-5.6-15.3-5.8-20.8-.6-37.9,8.4-49.5,16.9,6.7-.8,13.1-1.1,19.3-1.1Z"/>
  <path class="st0" d="M392,297.8l-.9-8.5c-2.2-21-27.9-32.8-55.2-45.3-17.3-8-35.2-16.2-47-27.2-13.7-12.9-17.1-27.9-10.3-45.8,5.6-14.9,19.3-27.7,33.3-31.2,9.5-2.4,18.8-.8,25.5,4.3,6,4.6,9.4,11.6,9.6,19.8.3,16.9-13.4,34.1-31.2,39.3-10.3,3-18.9.2-23.8-7.7-6.4-10.4-4.2-26.2,5-36l1.2-1.3,1.7.5c9,2.5,24.6,10.5,33.8,19.2l-3.9,4.1c-8.1-7.6-21.2-14.6-29.8-17.4-6.4,8-7.9,20.1-3.1,27.9,3.5,5.7,9.5,7.5,17.4,5.2,15.2-4.4,27.3-19.5,27.1-33.7-.1-6.4-2.7-11.9-7.4-15.4-5.3-4.1-12.8-5.3-20.7-3.3-12.3,3.1-24.4,14.5-29.4,27.7-13.1,34.9,19.7,50,54.4,65.9,24.6,11.3,49.9,23,56.8,42.6l102.4-173.1,4.9,2.9-110.3,186.6Z"/>
</svg>