<?xml version="1.0" encoding="UTF-8"?>
<svg id="Layer_1" xmlns="http://www.w3.org/2000/svg" version="1.1" viewBox="0 0 567 567">
  <!-- Generator: Adobe Illustrator 29.0.0, SVG Export Plug-In . SVG Version: 2.1.0 Build 186)  -->
  <defs>
    <style>
      .st0 {
        fill: #fff;
      }
    </style>
  </defs>
  <path class="st0" d="M43.3,419.7l-1.8-5.4s0,0,0,0h0c1.2-.4,124-40.6,139.2-73,1.6-3.4,1.8-6.4.7-9.2l-.5-1.3.8-1.2c.5-.8,13.3-20.6,41.6-46,26.1-23.4,70.8-55.9,135.9-78.5,35.4-12.3,51.7-30,49.8-54.3h0c-.3-9.4,4.5-16.8,12.7-20.1,8.7-3.5,17.8-2.5,26.2,2.7,6.2,3.9,9.9,8.7,10,8.9l1,1.3-.6,1.5c-1.8,4.4-11.6,26.2-22.1,28-5.7,1-10.4-1.9-15.8-5.3-.9-.6-1.9-1.2-2.9-1.8l2.9-4.9c1,.6,2,1.2,3,1.8,4.8,3,8.3,5.2,11.8,4.5,5.2-.9,12.9-13.5,17.2-23.1-1.4-1.5-4-4.2-7.6-6.4-6.9-4.2-13.9-5-20.9-2.2-8.7,3.5-9.2,11.9-9.1,14.5,1.3,15.9-4.5,29.5-17.2,40.6-8.7,7.6-20.6,14-36.3,19.4-64.1,22.2-108.1,54.3-133.8,77.2-24.1,21.5-36.9,39.3-40,43.9,1.1,3.9.7,8-1.3,12.3-6.7,14.4-31.6,29.6-58.7,42.7,123.9-40.4,339.1-110.5,347.1-113,16.8-5.2,17.3-14.1,17.3-14.5h5.7c0,.6-.2,13.4-21.3,19.9-11,3.4-415.3,135.2-432.2,140.7-.2,0-.4.1-.5.2Z"/>
  <path class="st0" d="M46.7,438.4l-1.8-5.4c1-.4,103.3-39.5,141.5-72.6,31.6-27.3,39.8-52,49.3-80.5,3.3-10,6.8-20.3,11.4-31.2,11.5-27,36.6-52.4,56.4-65.6,9.6-6.4,18.5-11.4,26.5-14.9-16.3-2.4-32.7-2.3-46.2-1.5-7.8.5-15.1,1.3-21.7,2.1-16.1,7.7-31.6,17.7-46.5,30l-4.1-3.9,19-26,1-.3c1.3-.3,12.8-3.2,29.5-5.5,14.6-6.8,29.7-11.8,45.1-14.9,29.1-5.8,59.8-5.1,91.3,2.2l-1.3,5.5c-40.9-9.5-79.4-7.7-115.4,5,18.5-1.3,39.9-1.2,60.1,3.1,9.6-2.8,17.7-2.9,24-.4,6.3,2.6,10.4,7.8,12,15.2l1.3,6.3-5.6-3.3c-9.6-5.7-20.4-9.5-31.7-11.9-8.6,2.7-19.8,8-34.2,17.6-18.5,12.3-43.4,37.4-54.3,63.1-4.5,10.7-7.9,20.9-11.2,30.7-9.4,28.1-18.3,54.7-51,83-16.4,14.2-45.5,30.9-86.5,49.7-3,1.4-6,2.7-8.9,4,116.4-34.1,398.1-116.7,410.4-120.3,12.5-3.6,14.8-12.9,14.8-13l5.5,1.3c-.1.5-3.1,12.6-18.7,17.1-15.4,4.5-455.6,133.6-460,134.9ZM233.9,174.1l-6.3,8.7c5.6-4,11.4-7.6,17.2-10.9-5.4,1-9.2,1.9-10.9,2.3ZM354.2,167.9c4.9,1.6,9.6,3.4,14.1,5.6-1.4-1.9-3.3-3.3-5.6-4.2-1.9-.8-4.7-1.4-8.6-1.4Z"/>
</svg>