<?xml version="1.0" encoding="UTF-8"?>
<svg id="Layer_1" xmlns="http://www.w3.org/2000/svg" version="1.1" viewBox="0 0 567 567">
  <!-- Generator: Adobe Illustrator 29.0.0, SVG Export Plug-In . SVG Version: 2.1.0 Build 186)  -->
  <defs>
    <style>
      .st0 {
        fill: #fff;
      }
    </style>
  </defs>
  <path class="st0" d="M376.5,467.4c-16.1,0-29.9-4.8-40.2-14.2-.2-.2-.4-.4-.6-.6-2,.9-4.2,1.6-6.6,2-8.5,1.5-18.2-.4-24.1-4.9-8.3-6.4-164.3-155.1-170.9-161.5l3.9-4.1c56.1,53.5,164,156.1,170.5,161,3.8,2.9,11.5,5.3,19.6,3.8.9-.2,1.9-.4,2.9-.7-16-14.7-32.9-31.4-53.9-51.9-27.8-27.3-62.4-61.3-113-108.8-16.1-16.1-28.1-30.7-13.1-46.3l4.1,3.9c-10.5,11-4.2,21.1,13,38.3,50.6,47.5,85.2,81.5,113,108.8,21.6,21.2,39,38.3,55.4,53.3,2-1.4,3.9-3.2,5.5-5.7l1.9-3.1,2.5,2.6c0,0,7.1,7.2,21.2,11.3,13,3.8,34.9,5.7,65.3-6.8l2.6,5c-13.8,9-31.7,15.6-47.9,17.7-3.8.5-7.5.7-11.1.7ZM340.7,449.6c15.7,13.6,37.7,14.1,57.5,9.2-10.6,1.1-21.7.5-32.7-2.7-10.5-3.1-17.4-7.7-20.8-10.4-1.2,1.5-2.6,2.8-4,3.9Z"/>
  <path class="st0" d="M360.5,406.7l-4.1-2.7c-44.8-30-109-86-159.7-139.4-27.4-28.9-69.2-76.2-85.6-113.1-25-15.9-46.8-27.3-61.3-28.7l-.4-5.6c.9-.2,1.8-.4,2.8-.7,11.5-2.8,30.9-7.4,55.9,4.1l1.7.8v1.9c-.4,6.5,1.6,14.7,5.8,24.3,22.2,14.2,46.8,32.1,72.2,50.3,34.6,25,70.4,50.8,100.9,68.2,20.1,11.5,44.5,31.3,48.9,43.3l-5.3,1.9c-3.5-9.5-24.7-28-46.4-40.3-30.8-17.6-66.7-43.5-101.4-68.5-21.7-15.7-43.8-31.6-64.1-45,14.1,26.8,41.7,62.4,80.4,103.1,22.3,23.4,47.2,47.4,71.9,69.4,1.3-1.8,3.3-3.9,6.3-4.7,4.3-1.2,9.2.5,14.5,4.9,2.4,1.7,43.8,30.6,58.7,42.1l.3.3c9.5,10.1,8.3,28.3,8.3,29.1l-.3,4.9ZM277,333.9c27.9,24.6,55.3,46.6,78.2,62.3-.3-5.5-1.7-14.1-6.6-19.5-15.4-11.8-58-41.5-58.4-41.8l-.2-.2c-3.8-3.2-7-4.5-9.5-3.9-1.7.5-2.9,1.9-3.5,3ZM63.1,120c12.5,4.1,27.7,12.1,44.5,22.5-2.2-6.3-3.4-12.2-3.5-17.5-16.8-7.3-30.5-6.8-41-5Z"/>
  <path class="st0" d="M462.7,353.8l-4.3-2.9c-.3-.2-26.5-17.7-56.9-38.7-6.8-4.7-13.2-11.6-20.6-19.6-12.2-13.1-27.3-29.4-51.8-44-25.3-15.1-55.4-35.6-84.4-55.5-27.4-18.8-55.3-37.8-80.2-53.1,11,19.6,30.5,43.7,55.3,71.8l-4.3,3.7c-29.1-33-50.4-59.7-60.3-81.1-24.2-14.2-44.9-24.1-58.8-25.4l-.4-5.6c.9-.2,1.8-.4,2.7-.6,11.2-2.7,30-7.2,54.3,3.9l1.7.8v1.9c-.4,6.1,1.4,13.2,4.9,21.1,27,16,57.9,37.1,88.2,57.9,29,19.8,59,40.3,84.1,55.3,21,12.5,35.2,26.2,46.6,38.2,3.5-1.3,8.6-1.7,15.1,2.1,8.4,4.9,43.7,27.2,59.2,37.9l.4.3c9.7,9.4,9.5,25.8,9.5,26.5v5.2ZM383.1,286.7c.7.7,1.3,1.4,1.9,2.1,7.2,7.7,13.4,14.4,19.7,18.8,22.7,15.7,43,29.4,52,35.4-.7-4.9-2.5-12-7.2-16.6-15.5-10.7-50.3-32.7-58.6-37.5-2.8-1.6-5.4-2.4-7.8-2.2ZM109.8,106.3c11.8,3.7,26.1,10.7,41.9,19.7-1.8-5.3-2.7-10.2-2.8-14.8-16-6.9-29-6.6-39.1-4.9Z"/>
  <path class="st0" d="M505.5,376.5c-2.8-23.5-20.1-47.6-48.7-67.8-24.4-17.2-55.6-30.4-81.6-34.5l-1.4-.2-.7-1.2c-1.4-2.5-3-5.9-4.6-9.6-1.3-2.8-2.6-5.8-3.9-8.3-5.5-10.9-21.5-7.7-28.3-4.5l-2.4-5.1c4.3-2,11.3-4,18.3-3.6,8.2.5,14.3,4.2,17.5,10.6,1.3,2.6,2.7,5.6,4,8.5,1.3,3,2.6,5.8,3.8,7.9,26.5,4.4,58,17.8,82.6,35.2,30,21.1,48.1,46.6,51.1,71.7l-5.6.7Z"/>
  <path class="st0" d="M395,447.5c-23.8,0-52-11-77.7-30.7-37.5-28.8-62.3-69.5-66.3-108.8-.3-3.2-1.6-5.6-4-7.2-5.7-3.9-16.4-2.8-22.8-1.5,3.6,6.9,13.3,24.1,27.1,38.1l-4,4c-18.4-18.6-29.3-41.8-29.7-42.8l-1.4-3,3.2-.9c.8-.2,20.4-5.7,30.9,1.5,3.8,2.6,6,6.4,6.5,11.3,3.8,37.8,27.8,77,64.1,104.9,28.5,21.9,60.1,32.7,84.4,28.8,13.6-2.2,23-8,26.4-10.4l3.3,4.6c-3.7,2.6-14,9-28.8,11.4-3.6.6-7.3.9-11.1.9Z"/>
  <path class="st0" d="M484.3,451.7c-7,0-13.6-2.1-18.8-6.1-6.1-4.7-13.1-14.3-11.8-33.2l.4-6,4.4,4.1c8.3,7.8,20.3,11.1,32.2,9,7.1-1.3,12-4.2,13.1-6.5l5.1,2.5c-2.2,4.4-8.8,8-17.2,9.5-11.6,2.1-23.3-.4-32.5-6.7.3,10.2,3.6,18,9.7,22.7,6.6,5.1,16.2,6.3,25.7,3.2,9.5-3.2,17.2-16.8,17.2-30.4v-8.3c0-19.5-15.7-35.4-34.9-35.4s-34.9,15.9-34.9,35.4v8.3c0,11.9,5.9,22.9,15.7,29.5l-2.7,5c-21.8-9.4-31.8-25.7-29.7-48.4l5.6.5c-1.4,15.3,3.5,25.2,9.6,31.7-2.8-5.6-4.3-11.9-4.3-18.3v-8.3c0-22.6,18.2-41,40.6-41s40.6,18.4,40.6,41v8.3c0,16.1-9.3,31.8-21.1,35.8-4.1,1.4-8.2,2-12.2,2Z"/>
</svg>