<?xml version="1.0" encoding="UTF-8"?>
<svg id="Layer_1" xmlns="http://www.w3.org/2000/svg" version="1.1" viewBox="0 0 567 567">
  <!-- Generator: Adobe Illustrator 29.0.0, SVG Export Plug-In . SVG Version: 2.1.0 Build 186)  -->
  <defs>
    <style>
      .st0 {
        fill: #fff;
      }
    </style>
  </defs>
  <path class="st0" d="M259.8,431.7c-4.2-13.1,14-29,39.2-50.9,23.9-20.8,53.7-46.8,68.7-76.1,13.5-26.4,6.6-50.1,1.1-69.2-.1-.5-.3-.9-.4-1.4-2.1,3.1-4.5,6.3-7.1,9.5-36.3,44.8-115.8,94.1-175.7,112.7-21.1,24.2-44,44.1-71.1,50.6l-5.7,1.4,9-19.3-35.2,28-4.1-3.8c1.6-2.5,60.6-75.4,67.3-83.7l4.8,3-17.3,37,14.5-11.5h.9c9.8-.6,21.2-2.9,33.8-6.7,10.5-12.1,20.7-25.3,30.7-38.4,26.7-34.8,51.9-67.6,81.6-76.5l1.6,5.4c-28,8.4-52.6,40.5-78.8,74.5-8.2,10.7-16.4,21.4-24.9,31.6,20-6.9,42.5-17.3,65.6-30.4,41.5-23.6,78.4-52.6,98.7-77.6,3.7-4.6,6.9-9,9.5-13.3-3.6-14-4.3-25.7,10.1-32l3.4-1.5.5,3.7c1.3,9-1.3,19.3-7.9,30.7.5,2,1.1,4.1,1.8,6.3,5.5,19,13.1,45-1.5,73.3-15.5,30.3-45.8,56.6-70.1,77.8-21.8,19-40.6,35.3-37.5,44.9l-5.4,1.7ZM127.8,381.1l-8.7,18.6c20.7-6.7,39.1-21.9,56.3-40.6-9.2,2.4-17.8,3.9-25.6,4.4l-22,17.5ZM135.5,351.3c-13,16.1-26.8,33.2-37,45.9l24.7-19.7,12.3-26.2ZM375,202c-5.2,3.7-6,9.1-4.5,17.2,2.9-6.2,4.5-12,4.5-17.2Z"/>
  <path class="st0" d="M347.5,456H42.1v-5.7h268.6l-58-9,.4-5.6,63.3-.7c-26.5-23.7-27.8-70.1-14.5-106.3,6-16.3,14.2-28.9,23.5-37.1-17.3-14.2-30.3-53.4-31.9-73.6-1.8-22.8,7.7-43.1,25.8-55.7.4-.2.7-.5,1.1-.7-26-6.4-53.6-18.5-76.6-28.6-4.5-2-8.8-3.9-12.9-5.6h-67.3l3.2-4.5c.3-.5,8.6-11.8,32.3-11.8s18.4,4.4,33,10.6h172.6c26.8,0,43.8,10.5,58.3,20.7,9.4-10.1,22.8-16.3,35.4-15.3,8.8.7,16.4,4.7,21.2,11.3,4.8,6.5,6.4,14.9,4.4,23.7l-.3,1.6-1.5.5c-6.6,2.2-12.5,3.2-17.9,3.2-16.1,0-28-8.4-40.4-17.3-2.7,3.6-4.8,7.6-6.2,11.8-2.8,8.6-2,17,2.1,23.2,3.6,5.4,9.6,8.7,16.7,9.3,8.6.7,17.7-2.3,25.5-8.4l5.2-4.1-.6,6.5c-1,11.3-6.9,21.2-17.1,28.5-21.5,15.5-59,18.1-105.7,7.2l1.3-5.5c60.8,14.2,89.5,2.1,101.1-6.3,6.8-4.9,11.4-11,13.5-18-7.5,4.3-15.6,6.3-23.6,5.6-9-.7-16.4-4.9-21-11.8-5.1-7.6-6.1-17.8-2.7-28.1,1.6-4.8,4-9.3,7-13.3-13.8-9.7-29.9-19.4-54.7-19.4h-159.6c.3.1.6.3,1,.4,24.6,10.8,54.5,23.9,81.5,29.6,16.3-8,35.4-8.7,50.9-1.5l5.6,2.6-5.6,2.6c-13.8,6.3-31.3,6.1-50,2.3-2,1.1-4,2.3-5.9,3.6-16.5,11.4-25,29.9-23.4,50.7,1.5,19.8,15,59,30.8,70.5,7.7-5.3,15.9-7.6,24.3-6.6l4.9.6-2.9,3.9c-8.5,11.4-16.9,11.9-22.4,10.3-1.2-.3-2.3-.8-3.5-1.4-8.4,6.7-16.6,18.1-23.1,35.8-6.9,19-9.5,40.4-6.9,58.8,2,14.5,8.1,34.3,25.8,45.9l7.8,5.1-46.3.5,60.4,9.3-.4,5.6ZM336,291c4,.9,7.9-.4,11.7-3.9-3.7.4-7.7,1.7-11.7,3.9ZM467.6,145.6c16.1,11.5,29,20.5,51.2,13.6,1.1-6.5-.2-12.7-3.8-17.5-3.8-5.2-9.9-8.4-17.1-9-10.8-.9-22.2,4.4-30.4,12.9ZM338.1,159.2c11.3,1.6,21.8,1.6,30.9-.9-9.8-2.7-20.7-2.4-30.9.9ZM176.9,121.6h40.2c-7.9-3-14.2-4.9-18.1-4.9-10.8,0-17.8,2.5-22.1,4.9Z"/>
</svg>