<?xml version="1.0" encoding="UTF-8"?>
<svg id="Layer_1" xmlns="http://www.w3.org/2000/svg" version="1.1" viewBox="0 0 567 567">
  <!-- Generator: Adobe Illustrator 29.0.0, SVG Export Plug-In . SVG Version: 2.1.0 Build 186)  -->
  <defs>
    <style>
      .st0 {
        fill: #fff;
      }
    </style>
  </defs>
  <path class="st0" d="M171.6,432.7l-5.1-2.5c1-2.2,28.3-53.9,280.2-56.8v5.7c-71,.8-168.7,6.3-231,27.9-37.3,12.9-44.1,25.6-44.2,25.7Z"/>
  <path class="st0" d="M397.4,220c-1.7,0-3.4-.2-5.1-.7-10-2.7-17-10-19.8-20.8-2.6-10.3-1.1-22.2,3.6-32.5-24.4-26-41.4-25.1-47.7-23.5-7,1.8-12,7.2-13.7,14.7-2.3,10.3,1.6,26.7,19.6,41.5l-3,4.8c-14.7-6.7-26.4-15.9-34.1-26.7-6.6-9.4-9.7-19.6-8.4-27.9,1.3-8.2,6.6-13.7,14.4-14.7l.7,5.6c-5.2.7-8.6,4.2-9.5,9.9-2.1,13.7,8.7,28.4,22.9,39-6.7-9.6-10.7-21.1-8.2-32.7,2.1-9.7,8.6-16.6,17.8-19,14.9-3.9,33.6,4.7,51.9,23.7,2.1-3.4,4.5-6.5,7.3-9.2,9.5-9,21.7-11.9,34.5-7.9,7.5,2.3,13.3,7.4,16.8,14.6,2.9,5.9,4,13.1,3.3,20-1,9.6-5.4,16.1-11.2,16.7-2.3.4-23.7,3.3-49.3-24.4-3.4,8.6-4.5,18.3-2.4,26.4,1.6,6.1,5.6,14,15.7,16.7,14.5,3.9,25.1-16.8,25.3-17l5.1,2.6c-.1.2-3.1,6.2-8.4,11.6-5.7,5.9-12,9-18.2,9ZM383,165.2c25.2,28.2,45.5,24.4,45.7,24.3h.3c2.8-.3,5.5-5.3,6.2-11.7,1.9-18-9.2-26.5-16.1-28.6-13.7-4.2-23.3,1.3-28.9,6.6-2.8,2.7-5.2,5.9-7.2,9.4Z"/>
  <path class="st0" d="M515.7,425.3c-6.6-6.1-19.5-14.8-25.6-12.3-1,.4-1.9,1.2-2.5,2.2-.7,5.8-2.1,8.3-2.4,8.8l-5.2-1.7c.3-3.5.9-6.4,2-8.7.6-6.1.3-16.4-3.5-32.7-.4-1.6-.7-3.3-1.2-5.2-4.5-6.1-9.1-12.7-13.8-19.4-30.9-44.7-51-81.8-59.9-110.5-21.1,25-56.7,52.3-98.6,75.3-40.6,22.2-105.6,50.5-185.3,59.8-15.4,17.4-30,14.6-40.7,12.6-1-.2-1.9-.4-2.8-.5-2.3,2.8-4.7,5.5-7.2,7.8l-.4.4-18.6,6.4-2.9-4.7,14.3-13.9.3-.2c3.8-2.2,7.9-2.4,12.2-1.9.1-.2.3-.3.4-.5,7.5-9.1,15.2-18.5,26.4-19.4,16.1-1.2,22.8-6.1,32.1-12.8.9-.6,1.8-1.3,2.8-2,32.5-23.2,60.1-38.2,89-36.1l-.4,5.7c-27.2-2-53.8,12.6-85.3,35.1-.9.7-1.8,1.3-2.7,2-9.3,6.7-17.3,12.5-35,13.9-8.1.6-14.6,7.8-20.8,15.3,10.5,2,22.4,4.1,35.8-11.6l.7-.9h1.1c79.3-9.1,144-37.3,184.3-59.4,43-23.5,79.2-51.7,99.4-76.9-.6-2.1-1.1-4.2-1.5-6.3l-.7-3.4h16.1l-3,4.4c-1.4,2.1-3,4.3-4.7,6.5,10.6,37,40.3,84.3,66.4,121.4,0-.4-.2-.8-.2-1.2-9.4-45.3-26.9-129.6-48.6-151.2l4-4c22.8,22.8,40.6,108.2,50.1,154,1.1,5.1,2,9.8,2.9,13.8,20.3,28,36.7,47.7,37.1,48.2l-4.1,3.9ZM492.5,407c3.4,0,7.2,1.2,10.7,2.9-4.9-6.2-10.9-14-17.6-23,1.7,8.8,2.3,15.6,2.3,20.9,0,0,0,0,0,0,1.4-.6,2.9-.8,4.5-.8ZM65,393.5l-4.7,4.5,5.4-1.8c1.2-1.2,2.5-2.5,3.7-3.9-1.6,0-3.1.4-4.4,1.2Z"/>
  <path class="st0" d="M170.4,432.3l-4.4-3.4c.3-.6,7.2-14.5,8.6-17,1.6-2.7,4.6-4.6,8.5-6.6,2.4-11.3,9.2-34.5,24.9-41,10-4.1,31.7-45.1,48.8-80-.4-.1-.7-.3-1.1-.5-9.8-4.3-13.7-18.3-9.4-34.1,3.8-14,13-26.3,25.9-34.7,15.7-10.2,36.4-14.1,59.8-11.3l-.7,5.6c-48.6-6-73.2,18.8-79.5,41.8-3.5,12.8-.9,24.3,6.2,27.4.5.2.9.4,1.3.5,3.2-6.6,6.2-12.8,8.8-18.5.7-1.6,1.3-2.8,1.8-3.7l1.9-4,2.8,3.3c3.1,3.6,3.2,17.2-2,24.3-1.6,2.2-4.8,5.1-10,4.9-38,78.1-48.6,82.5-52.3,84-11.6,4.7-17.7,21.7-20.5,32.7,0,0,0,0,.1,0,7.4-3.2,16.6-7.3,24.1-13.9,4.4-3.9,7.7-8.5,9.5-13.7,5.8-15.9,41.6-42.3,67.8-61.6,8.3-6.1,15.4-11.4,19.7-14.9,17.5-14.5,20.9-33.1,16.6-45-4.1-11.4-15.2-17.9-30.4-17.9v-5.7h.1c17.6,0,30.6,7.9,35.6,21.6,6,16.5-1.3,37.1-18.3,51.3-4.4,3.6-11.6,9-19.9,15.1-24.1,17.8-60.6,44.7-65.8,59-2.2,6.1-6,11.5-11.1,16-8.2,7.2-17.9,11.4-25.6,14.8-1.3.6-2.7,1.2-3.9,1.7-.4,1.9-.5,3-.5,3.1v.3c0,.1,0,.6-.1.9,0,1.6-.1,4.1-2,5.8-4.3,3.8-14.7,12.6-15.1,13ZM182,412.5c-1.1.7-1.9,1.5-2.4,2.2-.4.7-1.2,2.3-2.2,4.3,1.7-1.5,3.3-2.9,4.4-3.9.1-.2.2-1.3.2-1.8,0-.3,0-.6,0-.9ZM271,268.1c-1.9,3.9-3.7,7.7-5.4,11.3,1.1-.5,1.7-1.2,2.1-1.6,2.1-2.4,3-6.2,3.3-9.7Z"/>
</svg>