<?xml version="1.0" encoding="UTF-8"?>
<svg id="Layer_1" xmlns="http://www.w3.org/2000/svg" version="1.1" viewBox="0 0 567 567">
  <!-- Generator: Adobe Illustrator 29.0.0, SVG Export Plug-In . SVG Version: 2.1.0 Build 186)  -->
  <defs>
    <style>
      .st0 {
        fill: #fff;
      }
    </style>
  </defs>
  <path class="st0" d="M418.1,471.7l-1.2-1.4c-.3-.4-25.7-31.7-59.4-55.7,18,18.1,34.1,37.3,41.9,50.5l-4.9,2.9c-10.2-17.2-36.4-46.5-60.9-68.2l3.2-4.6c41.1,21.2,76.5,61.9,83.4,70.1,6.8-2,32.5-10.1,51.7-23,1.7-71-47.9-124-89.9-156-50.9-38.9-119.7-69.4-188.8-83.8l1.2-5.6c69.9,14.6,139.5,45.5,191.1,84.9,62.1,47.4,94,103.5,92,162.2v1.4s-1.2.8-1.2.8c-23.1,16.1-55,24.8-56.3,25.1l-1.8.5Z"/>
  <path class="st0" d="M224,243.5l2.5-10c1-4,0-8.6-2.8-13-3.1-5-11.2-13.9-30.5-18l1.2-5.5c15.8,3.4,27.9,10.7,34.1,20.6,1.7,2.7,2.9,5.5,3.5,8.3,2.4-4.5,3.5-9.5,3.2-14.7-1.1-18.9-19.2-35.6-40.4-37.2-2.5-.2-5-.2-7.3,0-2.1,11.7-7.7,22.4-16.3,30.9-4.5,4.8-9.9,6.3-13.8,4-4.1-2.5-5.2-8.2-2.9-15.4,4.2-12.9,14.6-21.7,27.9-24.4.3-3.1.4-6.2.2-9.4-1.8-31.8-29.3-58.1-61.4-58.6-15.5-.2-29.7,5.5-40,16.3-10.2,10.6-15.4,24.9-14.5,40.2.7,12.5,5.3,24.4,13.4,34.5l-4.4,3.5c-8.8-11-13.8-24.1-14.6-37.7-1-16.9,4.8-32.6,16.1-44.4,11.4-11.9,27-18.3,44.1-18,34.9.5,65,29.2,66.9,63.9.2,3,.1,6-.1,8.9,2.3-.2,4.6-.2,7,0,24,1.8,44.5,20.9,45.7,42.6.5,9.5-2.9,18.6-9.6,25.4l-7.2,7.4ZM181.4,174.9c-10.4,2.7-18.2,9.8-21.6,20.2-1.6,4.9-.9,8,.4,8.8,1.2.7,3.8,0,6.8-3.1,7.3-7.2,12.1-16.1,14.3-25.9Z"/>
  <path class="st0" d="M475.5,432.9c-12.5,0-28.9-2-48-6.9-27.6-7-69.1-22.4-110.6-55.5-111.5-89.1-205.7-118.2-266.8-132.4l1.3-5.5c27.6,6.4,65,16.3,110.4,36.1,54,23.6,107.4,56.4,158.7,97.4,40.7,32.5,81.4,47.5,108.4,54.4,31,7.9,56.3,8.1,65.7,4.1,5.7-6.5,13.9-21.3,16.2-25.5-2.1-5.3-12.3-28.7-37.3-43.6,4.5,10.1,11.3,28.9,11.9,51.1l-5.6.7c-.1-.6-13.8-56.4-59.7-96.8-14.1-8.6-38.3,5.4-42.5,11.7l-4.7-3.2c3.2-4.7,11.9-10.4,20.7-13.7,11.7-4.4,22.2-4.2,29.7.5l.4.3c26.8,23.5,42.9,52.1,51.9,72.7-4.4-16.9-10.8-28.2-10.9-28.4l-4.4-7.7,8.1,3.7c36.5,16.9,47.9,50.6,48.3,52l.4,1.1-.6,1.1c-.4.8-10.9,20.4-18,28.2l-.4.4-.5.2c-4.4,2-11.9,3.3-22,3.3Z"/>
  <path class="st0" d="M328.7,324c-12.4,0-27.1-5.6-46-17.4-2.5-1.6-5-3.2-7.7-4.8l3-4.8c2.7,1.6,5.3,3.2,7.7,4.8,28.8,18.1,42.4,17.8,51,15.6,7.1-1.8,11.5-6.7,13.4-12.1-7.2,6.6-19.1,9.6-30,8.6-6.4-.6-12.4-2.8-17.5-6.4-9.2-6.5-14.3-17.3-13.4-28,.7-7.5,4.3-14.3,10.2-19.2,5.9-4.8,13.3-7.1,21-6.5,15.5,1.4,27.3,14.9,26.3,30.3-.6,9.3-8,17.8-16.8,19.3-11.8,2-18.6-3-21.5-6.1-4-4.2-5.9-10.1-4.8-14.6l.7-2.9,2.8.8c22.7,6.5,27.9-5.2,28.1-5.7l5.2,2.1c-2.3-9.3-10.5-16.5-20.6-17.4-6.2-.5-12.2,1.3-16.9,5.2-4.7,3.9-7.6,9.3-8.1,15.3-.8,8.6,3.6,17.5,11,22.8,4.3,3,9.4,4.9,14.7,5.4,13.1,1.1,28.3-4.3,30.2-15h5.6c2.9,13.4-4.9,26.2-18.2,29.6-3,.8-6.2,1.2-9.5,1.2ZM309.1,286.9c.4,2,1.5,4.4,3.4,6.5,2.7,2.8,7.7,5.9,16.4,4.4,6.2-1.1,11.6-7.4,12.1-14.1.1-2.3,0-4.5-.6-6.6-.7,1.7-7.4,15.3-31.3,9.8Z"/>
  <path class="st0" d="M279.2,364.4c-31.6-23.1-105.6-64.5-164.1-79.9l1.4-5.5c45.2,11.9,99.5,39.1,136.9,61.6-17.3-13.9-38.6-28-63-41.7l-.9-.5-.4-1c-11.1-31.2-25.7-50.1-45.7-59.7l2-5.3c24.6,6.7,63.6,25.6,96.6,43.9-3.3-5.5-4.8-11.5-4.8-18.5,0-15.1,12.5-27.5,28-27.5s27.7,12.1,28.1,27c.2,9.1-6.2,17.9-14.6,20.1-11.3,3-18.2-1.3-21.4-4.1-4.2-3.8-6.6-9.3-5.9-13.8l.4-2.9,2.9.6c22.7,4.4,26.5-7.7,26.5-7.8l5.1,1.5c-3-8.7-11.4-14.9-21.2-14.9s-22.3,9.8-22.3,21.8,5.8,21.6,21.3,31.3l-3,4.8c-38.1-22.7-73.3-39.6-97.3-49.1,12.3,11.3,22.1,27.5,30.2,49.7,38.3,21.5,69,44.1,88.9,65.6l-3.8,4.2ZM257.2,263.5c.6,1.9,1.8,4,3.8,5.8,2.8,2.5,7.9,5,16.1,2.9,5.9-1.6,10.5-8.1,10.4-14.5,0-2.1-.4-4.1-1-6.1-.9,2.5-6.7,15-29.3,12Z"/>
</svg>