<?xml version="1.0" encoding="UTF-8"?>
<svg id="Layer_1" xmlns="http://www.w3.org/2000/svg" version="1.1" viewBox="0 0 567 567">
  <!-- Generator: Adobe Illustrator 29.0.0, SVG Export Plug-In . SVG Version: 2.1.0 Build 186)  -->
  <defs>
    <style>
      .st0 {
        fill: #fff;
      }
    </style>
  </defs>
  <path class="st0" d="M324.5,505.6c-1.3,0-2.6,0-3.8,0-59.8-1.7-198-16.4-275.1-25l.6-5.6c77,8.6,215,23.3,274.6,25,29.3.8,51.5-7.3,66.2-24.1,10.9-12.5,13.3-25.5,13.3-25.6l5.6,1c0,.6-2.6,14.5-14.4,28.2-18.5,21.4-45.9,26.3-67,26.3Z"/>
  <path class="st0" d="M370.1,480.7H45.9v-5.7h324.2c75.9,0,114.2-3.3,128.2-11,15.4-8.6,17.5-16.9,17.5-17l5.6,1.2c0,.4-2.4,10.9-20.3,20.8-15,8.3-53,11.7-130.9,11.7Z"/>
  <path class="st0" d="M168.6,493.1l-2.3-4.1c-13.3-23.7-14.2-59.5-2.6-106.6-13.6-53.3-25.6-119.9,7.3-179.5l.8-1.4h4c-.7-12.7-6.2-26.3-12.8-38.1-8.4,4.6-15.8,7.4-22.1,6.7-6.2-.6-14.4-4.7-18.2-20.6-2.2-9-2.3-19-2-25.8.6-13.9,2-14.9,2.8-15.4l1.7-1.1,1.6,1.2c4.8,3.6,19.8,19.1,32.8,38.6,2,3,3.8,5.8,5.5,8.6,5.8-3.5,12.1-7.8,18.7-12.4,23.6-16.1,53-36.2,82.7-36.2v5.7c-27.9,0-56.5,19.5-79.5,35.3-6.7,4.6-13.1,9-19.1,12.6,9.7,17.4,13,30.9,13.5,40.8l48.7-1.2,1.1,5.5c-1.2.5-28.5,11.3-53.4,7.5l-2.8-.4.4-2.8c.1-.9.2-1.8.3-2.7h-.5c-29,53.8-20.6,113.9-8.5,163.9,1.4-4.9,2.8-9.9,4.5-15.1,14-44.6,32.7-81.6,32.9-82l1.6-3.2,2.7,2.3c.2.2,17.9,15.3,35.3,34.9,23.6,26.6,35.3,48.2,34.7,64.2-.8,20.1,11,38.7,26,62.3,4.8,7.5,10,15.7,15.2,24.6-30.1-126.1-61.1-219.5-96.2-289.3-8-3.7-13.6-9.1-16.6-16.2-4.5-10.6.6-16.7.8-16.9l2.6-3.1,2,3.5c5.2,9,10.3,18.5,15.3,28.4,7.4,3,17,4.6,28.9,4.7h1s1.2-.1,3.3-4.9c1.7-4,3.3-9.7,5-15.7,5.5-19.2,12.3-43.1,29.2-45.3,8.8-1.2,17.6-2.2,25.9-3.2h-77.4v7.4l-44.9-7.5.5-5.6h38.7v-2.5l-72.6.6v-5.7s78.3-.6,78.3-.6v8.2h135.1l.2,5.7c-.4,0-41.5,3.3-83.1,8.8-13.3,1.7-19.5,23.6-24.5,41.2-4.1,14.3-7,24.7-13.7,24.7,0,0,0,0-.1,0h-1c-9.8-.1-18.2-1.2-25.3-3.2,36,73.4,67.8,171.9,98.7,305.4l-5.3,1.9c-8.3-16.2-17.1-30.1-24.9-42.4-15.5-24.4-27.7-43.7-26.9-65.6.5-14.3-10.9-35.1-33.2-60.2-13.1-14.7-26.4-27-32-31.9-4.8,10-19.5,41.4-31,77.9-2.7,8.6-5,16.9-7,24.8,1.7,6.6,3.4,13.1,5.1,19.2,2.2,8.2,4.3,15.9,6,23.2,8.8,35.8-8.8,63.1-9.5,64.3l-2.6,3.9ZM166.8,394.5c-7.8,37.1-7.1,66.8,2.1,87.1,4.4-8.9,12.5-30,6.3-55.3-1.8-7.2-3.8-14.9-6-23.1-.8-2.9-1.5-5.8-2.3-8.7ZM181.4,207.8c8.9,1,18.1,0,26.1-1.5l-26,.6c0,.3,0,.6,0,.8ZM126.9,116.1c-1.1,9.3-1.9,31.2,5.3,42.3,2.4,3.7,5.4,5.8,9.2,6.1,5,.5,11.4-1.9,18.7-6-1.8-2.9-3.5-5.7-5.3-8.3-10.3-15.3-21.7-28-28-34.1ZM210.7,145.7c0,1.5.5,3.4,1.4,5.6,1.4,3.3,3.5,6.2,6.3,8.6-2.5-4.8-5.1-9.6-7.7-14.2ZM233.4,101l4.5.7v-.7h-4.5Z"/>
  <path class="st0" d="M161.2,137.3l-25.8-31.9h5.8c0,0,2.3-.1,5.7-.2-2-4.1-3.4-8.9-3.8-13.9-.9-9.5,1.7-18.5,6.8-24.1,3.4-3.8,7.8-5.8,12.5-5.8,12,0,22.6,12.9,24.1,29.4.5,6.6-.6,11.1-3.4,14.2-3.6,4-9.3,4.8-13.9,5-4,.2-8,.4-11.7.5,2.9,2.8,6.3,4.4,9.7,4.4v5.7c-6.4,0-12.5-3.8-16.9-9.9-1.2,0-2.2,0-3.2,0l15,18.5c11.7-8.4,32.3-14.6,61.3-18.6,22.9-3.1,42.8-3.6,43-3.6v5.7c-.6,0-78.1,2.1-103,22.7l-2.2,1.8ZM162.4,67.1c-3.1,0-6,1.4-8.3,3.9-4.1,4.4-6.1,11.8-5.3,19.8.5,5.3,2.1,10.2,4.5,14.2,4.7-.1,10.2-.3,15.7-.6,5.2-.3,8.3-1.2,9.9-3.1,1.7-1.9,2.3-5.2,2-10-1.2-13.1-9.6-24.1-18.5-24.1Z"/>
</svg>