<?xml version="1.0" encoding="UTF-8"?>
<svg id="Layer_1" xmlns="http://www.w3.org/2000/svg" version="1.1" viewBox="0 0 567 567">
  <!-- Generator: Adobe Illustrator 29.0.0, SVG Export Plug-In . SVG Version: 2.1.0 Build 186)  -->
  <defs>
    <style>
      .st0 {
        fill: #fff;
      }
    </style>
  </defs>
  <path class="st0" d="M417,440.9c-33.5-5.2-41.5-28.6-41.8-29.6l-.4-1.2.7-1.1c16.5-27,34.3-67.8,25.9-109.2-5.1-24.7-17.3-38.1-17.4-38.3l4.1-3.9c.5.6,13.3,14.5,18.8,40.6,8.9,42.7-8.9,84.5-25.8,112.4,1.9,4.5,10.6,20.5,36.9,24.6l-.9,5.6Z"/>
  <path class="st0" d="M461.7,440.9h-146.9v-5.7h146.9c43.2,0,56.3-20.2,56.5-20.4l4.8,3c-.6.9-14.6,23.1-61.3,23.1Z"/>
  <path class="st0" d="M353.8,427.1l-4.7-3.1c45.9-70,13.3-112.6-8.3-140.8-3.5-4.6-6.8-8.9-9.4-12.8-6.8-10.4-7.6-21-2.5-31.7,4-8.3,10.8-14.4,14-17.2.4-.3.7-.6,1-.9l4-3.7.7,5.4c.7,5.2,1.8,9.7,3.4,13.4-5.3-22.9,1-40.3,4.3-49.6.2-.6.4-1.2.6-1.8-24.2-5.8-77.6,7.4-107.9,39.5l-158.9,161.1c7.5,2,24.8,5.7,51.2,5.8.2,0,.5,0,.7,0,30,0,55.2-8.2,76.9-24.9,19.5-15,33.8-34.7,47.7-53.8,15.6-21.5,30.4-41.8,50.9-53.1l2.7,5c-19.4,10.6-33.8,30.5-49,51.4-27.6,38-59,81.1-129.2,81.1s-.5,0-.8,0c-37.5-.2-56.7-7.1-57.5-7.4l-4.1-1.5,165.3-167.5c14.6-15.5,36.1-28.3,60.4-35.9,22.1-7,43-8.6,56-4.2l2.5.8-.6,2.5c-.3,1.3-.9,2.9-1.6,5-3.8,10.5-11.6,32.3.6,60.5l3.8,8.9-8-5.4c-7.2-4.9-11.9-12.7-14.2-23.7-9.4,9.2-18.5,22.5-7.8,39,2.5,3.8,5.7,8,9.1,12.5,11.2,14.6,25.1,32.8,30.5,57,6.4,28.5-.8,58.1-22,90.4Z"/>
  <path class="st0" d="M245,231.5c-6.5,0-12.4-1-16.9-2.6l1.9-5.3c7,2.5,19.3,3.5,30.3,0,6.2-22.4,23.6-42.6,48-55.6,25.4-13.5,55.1-17.8,85.8-12.7.2-1.7.5-3.4,1-5.1,3.9-13.6,15.9-24.1,27.3-24.1s.1,0,.2,0c4.8,0,9,2,11.9,5.6,3.6,4.5,4.9,11.2,3.4,18.3l-5.6-1.1c1.1-5.5.3-10.5-2.3-13.6-1.8-2.2-4.4-3.4-7.5-3.5-8.9,0-18.8,8.9-22,20-.4,1.5-.7,3.1-.9,4.5,8.4,1.7,16.9,4.1,25.4,7.1l4,1.5-2.9,3.1c-5.2,5.6-11.4,8.8-16.9,8.5-4.9-.2-9.1-2.4-11.9-6.3-1.9-2.6-3-5.8-3.4-9.3-29.8-5.1-58.6-1-83.1,12-23.6,12.5-40.2,32-45.6,53.5l-.4,1.5-1.4.5c-6.1,2.2-12.6,3-18.6,3ZM400,162.1c.4,1.8,1.1,3.5,2.1,4.9,1.8,2.4,4.4,3.8,7.5,3.9,2.8,0,6.1-1.2,9.2-3.7-6.3-2.1-12.6-3.8-18.8-5.1Z"/>
  <path class="st0" d="M314.5,440.6c-19.9,0-37-1.2-51.4-3.2-1.8.2-3.6.2-5.4.1-112.4-4-212.7-57.4-213.7-57.9l2.7-5c.9.5,81.9,43.6,179.5,54.8-26-8.1-35.7-17.7-36.3-18.4l-.6-.6-.2-.8c-4.1-19.6-3.1-36.9,3-53l.6-1.6,1.7-.2c39.1-4.8,86.4-26.2,129.8-58.7,45.5-34.1,80.3-75.4,97.9-116.2l3.3-7.7,2,8.2c3.8,15.5,12.9,40.9,21,43.2,6.6,1.9,18.4,3.8,29.7,3.9,3.6,0,6.8-.2,9.9-.5,14-14,23-23.1,23.4-23.5l3.8-3.8,1,5.3c1.5,8.1-.5,14.7-5.8,19.5-5,4.5-12.3,6.8-19.7,7.8-47.7,47.9-148.8,149.6-163.2,165.1-12.6,13.5-29.8,28.8-48.1,36,10.5.9,22.2,1.5,35.2,1.5v5.7ZM194.4,407.6c3.3,2.9,22,17.4,69,24,13.4-1.4,33.5-9.8,59.8-38,14-15,109.3-110.9,158.6-160.5-1.3,0-2.6,0-3.8,0-12.6,0-24.7-2.2-31.2-4.1-10.7-3.1-19.1-26.9-22.9-39.6-18.8,39.3-52.8,78.6-96.4,111.3-43.5,32.6-91.1,54.2-130.8,59.5-5.1,14.3-5.9,29.8-2.4,47.3ZM510.8,212.2c-3,3-7.4,7.4-12.8,12.9,3.5-1.2,6.4-2.7,8.5-4.6,2.5-2.2,3.9-5,4.3-8.3Z"/>
</svg>