<?xml version="1.0" encoding="UTF-8"?>
<svg id="Layer_1" xmlns="http://www.w3.org/2000/svg" version="1.1" viewBox="0 0 567 567">
  <!-- Generator: Adobe Illustrator 29.0.0, SVG Export Plug-In . SVG Version: 2.1.0 Build 186)  -->
  <defs>
    <style>
      .st0 {
        fill: #fff;
      }
    </style>
  </defs>
  <path class="st0" d="M326.7,519.8c-14.8-4.7-35.5-24.6-37.5-29.1l-1.2-2.7,2.7-1.1c.1,0,13.8-5.8,20.6-16.5,12.5-19.6,20.5-49.3,22.5-83.7,1.9-31.8-1.8-58.9-6.3-71.6l5.3-1.9c10.7,30.4,12.5,114.3-16.7,160.3-5.7,8.9-15.1,14.6-20,17.2,5.2,5.9,20.5,20,32.3,23.8l-1.7,5.4Z"/>
  <path class="st0" d="M98.7,330.4c-3.8,0-7.3-.1-10.4-.4h-.2c-7.2-1.2-11.7-2.6-11.9-6.3-.3-5.1,7.3-7.7,39.7-16.4,3.7-1,7.6-2,11.6-3.1l1.5,5.5c-4,1.1-7.9,2.1-11.6,3.1-13.6,3.7-28.7,7.7-34,10.4,1.1.3,2.8.7,5.5,1.2,33.7,2.7,118.5-10.4,201.7-31.1,54.2-13.5,104.5-29.2,141.4-44.1,54.6-22,53-31.3,52.9-31.6-.1-.5-2-5.3-26.5-5.3s-.4,0-.6,0v-5.7c20.6,0,31,3,32.6,9.6,1.3,5.3-3.3,11.1-14.5,18.1-9.5,6-23.6,12.8-41.8,20.1-37.2,15-87.7,30.7-142.2,44.3-76.3,19-154.2,31.6-193.3,31.6Z"/>
  <path class="st0" d="M272.7,526.1v-5.7c.5,0,46-.2,63.6-.2-1.2-1.4-2.9-3.1-4.4-4.5-9.7-9.7-26-26-21.5-43.8,18.2-72-1-108.8-15-135.7-6-11.4-11.1-21.3-12.6-31.7-4.1-28.6,19.6-39.4,25.9-41.7,1.3-4.6.5-10.3-2.3-15.8-4.1-8.1-11.9-14.6-20.1-16.8l1.5-5.5c9.9,2.6,18.8,10,23.7,19.7,3.8,7.5,4.6,15.4,2.1,21.7l-.5,1.3-1.4.4c-1.1.3-27.3,8.2-23.3,35.9,1.4,9.5,6.3,19,12,29.9,14.4,27.7,34.2,65.7,15.5,139.7-3.7,14.7,11.1,29.5,20,38.4,5.8,5.8,8.6,8.6,7.4,11.7-.7,1.7-2.3,2.5-4.8,2.5-15.7,0-65.2.2-65.7.2Z"/>
  <path class="st0" d="M163.6,279.7c-10.4,0-16-5.5-16.3-5.8l-4.2-4.3,5.9-.6c11.5-1.1,30.8-6.4,53.4-14.6,7.9-6.2,15.7-13.1,23.4-20,19.8-17.5,38.6-34.1,54.5-34.8,7.9-.3,14.9.8,20.7,3.5l-2.4,5.2c-5-2.3-11.1-3.3-18.1-3-13.9.6-31.9,16.5-50.9,33.4-3.5,3.1-7.1,6.3-10.7,9.4,20.5-8.2,42.5-18.4,62.9-29.7,33.2-18.4,63-38,84.1-55.2,24.5-20,28.5-29.9,27-32.6-1.1-2-6.8-3.3-19.3-.7l-1.1-5.6c14.2-2.8,22.5-1.7,25.4,3.6,4.2,7.6-5.3,20.9-28.4,39.8-21.3,17.4-51.5,37.2-84.9,55.8-23.8,13.2-51.6,25.9-78.1,35.7-.4.2-.8.3-1.3.5-8.7,6.8-17.4,12.6-26.1,16.6-6,2.7-11.2,3.7-15.5,3.7ZM158.4,273.4c4.2,1,10.4,1.1,18.5-2.5,3-1.3,6-2.9,9-4.7-10.5,3.3-19.8,5.8-27.4,7.3Z"/>
  <path class="st0" d="M275.8,328.9c-30.5,0-54.9-8-74.6-14.4-10.6-3.5-19.8-6.5-27.5-7.3-15.9-1.8-31.6,5.5-43,10.7-3.9,1.8-7.3,3.4-10.1,4.3-4.5,1.5-10.6.6-12.5-3-.5-.9-1.7-4.2,2.7-7.4l3.3,4.6c-.2.2-.4.3-.5.4,1,.4,3.1.7,5.2,0,2.5-.8,5.7-2.3,9.5-4,12.1-5.6,28.6-13.2,46.1-11.2,8.2.9,17.6,4,28.6,7.6,19.7,6.4,44.2,14.4,74.4,14.1,30-.3,54.5-15.3,65.5-40.1,14.2-32.1,3.4-73-29-109.4-23-25.8-37.3-50-42.8-72.3.1,6,.9,11.6,1.7,16,2.5,13.9,7.7,28.5,14,41,18,9.3,26.3,28.3,27,33.2l.8,4.9-4.6-1.9c-9.1-3.7-19.2-16.1-27.5-32.1-.6-.3-1.2-.5-1.8-.8-8.8-3.6-17.7-1.8-20.8,4-3.4,6.4,1.1,15.6,10,20.3,8.9,4.7,18.9,3.4,22.4-3l5,2.7c-4.9,9.1-18.4,11.5-30.1,5.3-11.7-6.2-17.3-18.8-12.4-28,4-7.6,13.8-10.6,24-7.9-5.2-11.5-9.4-24.3-11.7-36.8-3.3-17.9-1.9-30.7,1.3-39.6,0-.7,0-1.4,0-2,1.3-21.9,12.3-32.9,12.8-33.4l2.5-2.4,1.9,2.9c2.9,4.5,5.8,15.5-4.1,24.7-3.4,3.2-5.8,7.1-7.5,11.5-.5,33,23.4,67,43.9,90,33.9,38.1,45.1,81.3,29.9,115.5-11.9,26.9-38.3,43.2-70.6,43.5-.5,0-1.1,0-1.6,0ZM293.1,169.6c3.9,6.2,7.9,11.3,11.9,15-2.5-4.6-6.4-10.2-11.9-15ZM282.6,51c-2.1,3.1-4.8,8.2-6.6,15.2.6-.7,1.3-1.3,1.9-1.9,5.2-4.8,5.5-9.9,4.7-13.3Z"/>
</svg>