<?xml version="1.0" encoding="UTF-8"?>
<svg id="Layer_1" xmlns="http://www.w3.org/2000/svg" version="1.1" viewBox="0 0 567 567">
  <!-- Generator: Adobe Illustrator 29.0.0, SVG Export Plug-In . SVG Version: 2.1.0 Build 186)  -->
  <defs>
    <style>
      .st0 {
        fill: #fff;
      }
    </style>
  </defs>
  <path class="st0" d="M364.5,276.4l-1.6-.9c-.5-.2-11.1-6.1-13.4-19-2.1-12.1,3.7-25.9,17.4-41.1,1.4-1.6,5.8-9.7,3.3-16.6-2.3-6.4-10.4-10.8-23.2-12.6l.8-5.6c15.2,2.1,24.5,7.6,27.7,16.2,3.5,9.5-2,19.7-4.4,22.4-12.4,13.8-17.8,26-16,36.3,1.3,7.6,6.4,12.2,9,14,5.1-4,21.1-17.1,31-28.1,20-22.2,26-47.2,16.3-68.6-10.7-23.8-39.3-38.4-74.7-38.4s-.9,0-1.4,0c-14.2.1-26.6,1.9-37.9,5.4-34.6,10.6-52.9,10-62.2,7.6l-1.6-.4-.5-1.5c-.6-2-.9-3.9-1.1-5.5-1.9-12.4,1-24,7.8-31.9,5.2-6.1,12.5-9.4,20.4-9.4,15.1,0,29.8,11.7,36.6,29.1l-5.3,2.1c-5.9-15-18.8-25.5-31.3-25.5s-11.9,2.6-16.1,7.5c-5.7,6.7-8.1,16.6-6.5,27.4.1,1,.3,2,.5,3.1,9.1,1.8,26.2,1.7,57.6-7.9,11.8-3.6,24.8-5.5,39.6-5.6,19.5-.2,37.4,3.7,51.7,11.3,13.7,7.3,24,17.8,29.7,30.4,10.6,23.5,4.3,50.8-17.3,74.7-12.1,13.4-32.4,29.3-33.3,30l-1.5,1.1Z"/>
  <path class="st0" d="M238.5,448.1c-2.8-8.5,7.7-17.7,22.2-30.5,17.7-15.5,39.7-34.8,39.1-56.2-.3-12.1-7.8-23.7-22.7-35.4-46.6-36.5-67.1-56.2-67.1-91.7s13.3-49.9,35.7-65.7c-3.3-3.9-5.9-8.6-7.6-14.1l5.4-1.7c1.6,5,4,9.3,7,12.7,12.3-7.5,26.9-12.1,43.3-12.3h4.2c0,0-1.6,3.9-1.6,3.9-5.3,13.5-16.8,22.2-29.2,22.2s-12.5-2.4-17.5-6.6c-21.4,14.6-34.1,38.7-34.1,61.6s16.2,49.1,64.9,87.2c16.1,12.6,24.5,26,24.9,39.7.7,24-22.5,44.3-41,60.6-10.9,9.6-22.2,19.5-20.6,24.4l-5.4,1.8ZM254.9,169.4c3.7,2.7,8,4.2,12.4,4.2,8.6,0,17-5.7,22-14.6-12.8.9-24.4,4.6-34.4,10.4Z"/>
  <path class="st0" d="M110.1,468.2h-43.4c-17.8,0-22.8-21.2-23.1-22.1l-.8-3.5h70.5c16,0,30.9-11.4,31.1-11.6l88.8-70.8c-8-7.9-14-17-16-28.8-2.3-14.1,2-29.2,12.5-43.7,17.5-24.1,48.8-42.2,81.7-47.3,46.6-7.1,69.8,2.5,70.7,3l4.3,1.9-144.5,115.2c1.6,1.4,3.3,2.7,5,4l103.8-86.3,3.6,4.4-102.7,85.4c4.2,3,8.7,5.9,13,8.7,18.8,12.2,38.2,24.8,42.4,45.9l.4,2.2-61.1,28.8c3.7,3.5,11.1,8.6,20,3.7,13.5-7.4,39.1-22.7,39.4-22.9l2.9,4.9c-.3.2-26,15.6-39.6,23-13.4,7.3-25.3-2-29.7-7.9l-2.1-2.8,63.6-30c-4.6-17.5-21.5-28.5-39.4-40.1-4.9-3.2-9.8-6.3-14.5-9.7l-98.4,81.8c-.8.6-19.2,14.6-38.8,14.6ZM50.3,448.3c2,5.2,6.9,14.2,16.4,14.2h43.4c17.2,0,34.4-12.7,35.3-13.4l97.2-80.8c-1.7-1.3-3.4-2.7-5.1-4.1l-89.5,71.3c-.7.5-16.6,12.8-34.6,12.8h-63.1ZM343.6,243.7c-8.8,0-19.3.7-31.3,2.5-30.9,4.7-61.5,22.4-77.9,45-9.6,13.2-13.6,26.9-11.5,39.5,1.7,10.5,7.3,18.8,14.9,26.1l137.4-109.5c-5.6-1.5-16.1-3.6-31.6-3.6Z"/>
  <path class="st0" d="M524.1,468.4h-170.1v-5.7h156.1l-19.1-18.5.5-1.6c4.4-15.4,3-29.4-4-41.5-10.5-17.9-31.8-28.4-47-32-3-.7-6-1.4-8.9-2-41.4-9.3-72.2-16.2-159-130.1.3,17,4.5,41.2,41.5,74.8,3.2,2.9,4.7,6.8,4.3,11.2-.9,10.7-13,21.9-15.5,23.4l-3-4.8c1.7-1.1,12.1-10.8,12.9-19.1.2-2.6-.6-4.7-2.5-6.5-44-39.9-43.6-67.5-43.3-85.7,0-.2,0-.5,0-.7-5.5-7.4-11.3-15.2-17.3-23.4l-4.6-6.3,7.5,1.8c19,4.6,20.1,14,20.1,26,88.9,117.8,119.2,124.6,160.2,133.8,2.9.7,5.9,1.3,9,2.1,17,4,39.2,15.2,50.6,34.6,7.6,13,9.3,27.9,5.1,44.2l26.7,25.9ZM259.6,210.2c2.4,3.2,4.7,6.3,7,9.4-.7-4.1-2.5-7.1-7-9.4Z"/>
  <path class="st0" d="M515.7,467.6c-.5-.8-12-18.2-16.3-27.2-20.4-1.9-40-9.9-55.4-22.5-14.5-12-23.9-27.2-25.6-41.5-1-7.8,1.8-13.8,4.7-20.2,7.2-15.8,16.1-35.6-28.5-98.5l4.6-3.3c20.5,28.9,31.9,51.8,34.7,69.8,2.6,16.1-2,26.2-5.7,34.3-2.7,5.9-5,11-4.2,17.2,3.2,26,35.1,56,77.5,59.2h1.7c0,.1.7,1.7.7,1.7,3.3,7.9,16.3,27.7,16.5,27.9l-4.7,3.1Z"/>
</svg>