<?xml version="1.0" encoding="UTF-8"?>
<svg id="Layer_1" xmlns="http://www.w3.org/2000/svg" version="1.1" viewBox="0 0 567 567">
  <!-- Generator: Adobe Illustrator 29.0.0, SVG Export Plug-In . SVG Version: 2.1.0 Build 186)  -->
  <defs>
    <style>
      .st0 {
        fill: #fff;
      }
    </style>
  </defs>
  <path class="st0" d="M159.4,486l-.8-5.6c39.7-5.3,72-23.5,101.6-57.2h.1c0-.1,171.7-173.1,171.7-173.1-16.4,14.7-33.9,30.5-50.8,45.6-43.2,38.8-80.5,72.3-85.4,76.6-1.2,1-2.8,2.5-4.9,4.4-20.4,18.6-82.3,75.4-154.3,52.8l1.7-5.4c68.9,21.6,129-33.5,148.8-51.6,2.1-1.9,3.8-3.4,5-4.5,4.9-4.2,43.9-39.3,85.3-76.5,54.5-49,116.3-104.5,121.5-108.9l3.8,4.2-238.4,240.2c-30.6,34.8-63.9,53.6-105,59.1Z"/>
  <path class="st0" d="M108.1,483.5c-3.9,0-7-.3-8.6-.9-2.7-.9-3.2-2.6-3.2-3.5-.2-2.8,2.9-4.2,4-4.8,19.2-9.2,45-23.2,72.7-40.7,38.1-68.9,126.5-224,232.5-293.4-2.8-5.9-9.3-7.8-13.2-8.4l-.4-5.5c3.8-1.2,7.8-1.8,11.8-1.8,17.5,0,34.2,12.8,38.6,28.9,6.2-.4,12.4-2.3,17.9-5.5,17.6-10.2,24.8-31,15.9-46.4-8.9-15.4-30.5-19.7-48.1-9.5-7.9,4.6-13.9,11.3-17.2,19.2,12.9,1.1,25,7.2,33.6,16.9,1.6,1.8,3.4,2.5,5.7,2.2,5-.6,10.7-5.7,13.3-9.6-5.7-11.6-17.6-19.7-32.3-21.8l.8-5.6c17.2,2.4,31.2,12.3,37.3,26.4l.6,1.3-.6,1.2c-2.7,5-10.3,12.8-18.4,13.8-4.1.5-7.8-.9-10.6-4.1-8.4-9.5-20.6-15-33.3-15.2h-3.8s1.1-3.7,1.1-3.7c3.3-10.8,10.7-20,21-25.9,20.4-11.7,45.4-6.6,55.9,11.5,10.5,18.1,2.4,42.4-17.9,54.2-7.1,4.1-15.1,6.3-23,6.3h-2.4s-.4-2.3-.4-2.3c-2.7-14.4-17.9-26.6-33.3-26.7,3.8,2.5,6.4,6,7.7,10.3l.6,2-1.8,1.2c-47.3,30.5-97,82.5-147.7,154.7-34.2,48.7-61.7,96.3-79.8,128.8,16.2-10.5,32.8-22,49-34.3,38-28.9,68.1-57.6,89.9-85.8-8.5,1.4-17.2,1.9-26.1,1.2l-8.6-.7,7.3-4.6c17.2-10.8,37-26.9,58.8-48.1l4.6,3.1c-5.6,13.2-13.1,26.6-22.4,40.1,36.4-10.7,68.1-37.2,91-56.4l3.6-3c23.7-19.8,36.9-42.5,33.5-58-1.6-7.2-6.6-12.2-15-14.9-15,20.2-40.1,46.1-74.7,76.9l-3.8-4.2c35.3-31.4,60.5-57.4,75.1-77.6l1.1-1.6,1.9.5c14.5,3.9,19.4,12.8,20.9,19.7,3.9,17.7-9.6,42.1-35.4,63.5l-3.6,3c-24.8,20.7-59.5,49.7-99.9,59.3-22.4,30.3-54.2,61.1-94.8,92-19.2,14.6-39.1,28.2-58.2,40.2-1.6,2.9-3.1,5.6-4.5,8.1-7.8,14.2-11.4,20.6-13.1,22.6-9.2,10.7-36.6,15.1-51.6,15.1ZM105.9,477.9c12,.3,41.3-3.6,49.5-13.1,1.4-1.6,6.1-10.1,12-21-23.2,14.2-44.6,25.8-61.5,34.1ZM346.2,269.5c-14.8,13.6-28.6,24.8-41.2,33.5,7.4,0,14.7-1,21.9-2.6,7.6-10.4,14-20.7,19.3-30.9Z"/>
  <path class="st0" d="M73.1,465.3c-.2,0-.4,0-.5,0-3.2-.4-5.6-3.8-7.1-10.2-3-12.8-1.4-34.4,11.3-42.5,6.7-4.3,13.9-9,21.3-14-9.5-.8-18.7-3.6-27.4-8.4l2.8-5c9.4,5.2,19.4,7.9,29.9,7.9,24.3-51,60-112.7,125.2-164.7,7.7-22.2,20.9-40.3,32.4-53,19.4-21.5,44.8-39.6,69.5-49.8,23.2-9.6,41.9-10.3,51.2-2.1l3.4,3-4.2,1.7c-.6.2-55.4,22.7-84.2,62l-4.6-3.4c24.5-33.4,67.1-55,81.7-61.7-8.7-3.5-23.5-1.6-41,5.6-24,9.9-48.6,27.5-67.5,48.4-9.6,10.5-20.4,25-27.9,42.4,10-7.6,20.7-14.9,32.1-21.9l3.4,4.5c-17.2,15.7-31.8,36.8-39.7,48.2-2.5,3.6-4.3,6.3-5.6,7.8l-5.6,6.9.6-8.9c.5-7,1.6-13.8,3.2-20.2-57.7,48.1-91.2,103.9-114.3,151.3,41-28.3,88.1-64.3,122.8-98.1l4.4,3.5c-.2.3-22.2,34.9-53.5,63.8-18.5,17.1-36.6,28.8-53.7,35-8,2.9-15.8,4.5-23.3,5-.5.3-1,.7-1.5,1-5.2,11-9.9,21.5-14.2,31.3-4.7,10.6-9.1,20.6-13.4,29.4-1.9,3.9-4.2,4.9-5.9,4.9ZM97.4,405.9c-7.4,5-13.5,8.9-17.6,11.5-6.2,4-10,13.6-10,25.7,0,8.4,1.9,14.5,3.2,16.2.2-.3.5-.7.8-1.3,4.2-8.7,8.7-18.7,13.3-29.2,3.2-7.2,6.6-14.9,10.3-22.8ZM217.4,314.8c-33.5,29.8-70.7,57.2-98.9,76.8,3.6-.8,7.3-1.8,11-3.1,16.4-5.9,33.9-17.3,51.8-33.8,14.5-13.4,27-28.1,36.2-39.9ZM233.5,232c-1.7,5.1-3.1,10.5-4,16,5.2-7.6,13-18.6,22.3-29.6-6.3,4.5-12.4,9-18.3,13.6Z"/>
</svg>