<?xml version="1.0" encoding="UTF-8"?>
<svg id="Layer_1" xmlns="http://www.w3.org/2000/svg" version="1.1" viewBox="0 0 567 567">
  <!-- Generator: Adobe Illustrator 29.0.0, SVG Export Plug-In . SVG Version: 2.1.0 Build 186)  -->
  <defs>
    <style>
      .st0 {
        fill: #fff;
      }
    </style>
  </defs>
  <path class="st0" d="M369.6,463.7c-1.3-1.2-2-2.9-1.9-4.8.2-4.3,4.2-9.2,7-11.3.4-.3,39.4-31,54.9-57.4,0-25.4-20.2-58.8-20.4-59.2l4.8-3c.9,1.5,21.8,35.8,21.3,63v.7s-.4.6-.4.6c-6.7,11.6-18.3,25.2-34.5,40.3-12,11.3-22.2,19.3-22.3,19.3-2.1,1.6-4.7,5.1-4.8,7.1,0,.1,0,.3,0,.4l-3.9,4.2Z"/>
  <path class="st0" d="M238.2,427.6l-4.5-3.4,79.1-106c-1.7-3.4-3.3-8.2-4.8-14.6-4-16.1,2.5-31.3,18.8-43.8,13.6-10.5,33.5-18.5,54.6-21.9,8.7-1.4,17-1.9,24.5-1.6,4-11.8,12.5-19.3,21.1-18,7.1,1,12.2,6.7,13.4,15.1l-5.6.8c-.5-3.5-2.3-9.4-8.7-10.3-5.3-.8-11.1,4.6-14.3,12.8,8.3.9,15.6,2.9,21.2,5.9l1.9,1-.5,2.1c-3.1,13.5-11.7,22.8-20.1,21.6-2.8-.4-5.3-2-7.2-4.7-3.3-4.8-4.3-12.5-2.7-20.8-24.4-.7-55.2,7.8-74.2,22.4-10,7.7-21.1,20.6-16.7,38,1.2,4.8,2.3,8.2,3.2,10.7l11.4-15.3,5.1,2.2c-1.6,9.3-5.4,24.8-12.6,25.1-1.6,0-3-.5-4.4-1.8l-77.9,104.5ZM319.6,318.6c.4.4.6.6.8.7.9-.4,2.3-2.8,3.7-6.6l-4.4,6ZM410.1,242.2c-1.5,6.9-.8,13.6,1.6,17.2.9,1.4,2,2.1,3.3,2.3,4.3.6,10.3-5,13.2-15.1-5-2.4-11.2-3.8-18.1-4.5Z"/>
  <path class="st0" d="M216.1,517.6l-3.7-4c7.4-11.5,27.9-30.8,54.8-55.1,1-3,1.9-5.9,2.8-8.8,4.7-15.4,9.5-31.4,33-48.3.7-2,1.4-4.1,2.1-6.3,10.7-32.8,24.1-73.6,55.8-85.7,9-3.4,15-8.9,17.8-16.2,4.5-11.4.5-25-2.5-31.3l5.1-2.5c1,2,9.1,19.5,2.7,35.8-3.5,8.9-10.6,15.4-21.1,19.4-29.2,11.2-42.1,50.6-52.4,82.2-.8,2.4-1.6,4.8-2.4,7.2l-.3.9-.8.5c-22.5,15.8-26.9,30.3-31.5,45.5,1.9-1.7,3.9-3.5,5.9-5.3,64.4-58,152.6-137.4,158.5-186.2l5.6.3c.2,12.2,2.7,44,11.8,53.9,7.2-7.4,16.6-21,22.9-33.2v-29.9h2.7c6-.4,8.3,3,9.2,5,2.5,6.1-1.3,16.7-6.2,26.3v177.8h-5.7v-167.7c-6.8,11.3-15.1,22.3-20.9,27.6l-1.7,1.6-1.9-1.3c-9.4-6.7-13.3-27.3-14.8-42.7-20.1,50.6-97.5,120.3-155.7,172.7-4.5,4-8.9,8-13.1,11.8-6.1,17.2-17.1,35.2-55.9,55.9ZM261.6,471.2c-14.4,13.2-26.8,24.8-35.2,33.9,19.5-12.1,29.3-23.3,35.2-33.9ZM485.8,256.5v10.9c1.4-4.3,1.8-7.7,1-9.8-.1-.3-.3-.8-1-1.2Z"/>
  <path class="st0" d="M452.9,521.9c-2.8,0-5.7-.4-8.6-1.4-1.6-.5-15.1-9-31.3-19.3-23.2-9.2-50.6-22.2-79.9-36.4-12.3-6-23.9-11.6-33.4-15.9l2.3-5.2c9.5,4.3,21.2,10,33.5,16,14.7,7.1,31.6,15.3,48.6,23-11.7-7.6-22.3-14.4-28.5-18.4l-1.6-1.1.4-1.9c6.1-29.9,29.6-57.8,36.5-65.5-6-7.2-13.1-24.5-14.1-27.2l5.3-1.9c2.5,6.7,10.4,23.9,14.4,26.8l2.7,2-2.4,2.3c-4.8,4.6-29.7,33.5-36.5,62.8,17,11,38.2,24.7,55.2,35.6,26.7,10.5,49.5,16.8,58.1,11.2l3.5,4.5c-.5.5-11,10.1-24.4,10.1ZM446.1,515.1c5.2,1.7,10.3,1.1,14.6-.3-6.6-.5-14.5-2.2-23.4-5,4.8,3,7.9,4.9,8.8,5.2Z"/>
  <path class="st0" d="M77.1,316.7l-3-4.8c.2-.1.4-.3.7-.5,22.4-14.1,79-53.5,83-73.8.5-2.4.1-4.3-1-5.9l-.9-1.2.5-1.4c.2-.7,5.7-16.7,21-39.3,14.1-20.8,39.6-51.3,81-78.3,22.1-14.4,30.3-29.3,24.8-45.4h0c-1.5-5.3-.7-12.5,5.7-17.1,10.9-7.8,23.2-2.2,28.1,1.8l1.3,1-.3,1.6c-.5,3.4-3.6,20.6-11,23.9-4.1,1.8-8,.6-12.5-.9-.7-.2-1.5-.5-2.3-.7l1.7-5.4c.8.3,1.6.5,2.4.8,4,1.3,6.4,2,8.4,1.1,3.1-1.4,6.1-10.9,7.4-17.9-3.2-2.1-11.8-6.5-20-.7-4.9,3.5-4.1,8.6-3.5,10.8,6.2,18.6-2.9,36.1-27.1,51.9-71.6,46.7-95.9,104.4-99.3,113.5,1.4,2.6,1.8,5.6,1.1,9-1.9,9.5-12.5,21.6-25.7,33.4,80.1-50.2,207.7-130,212.7-133,10.2-6.1,9.2-12,9.1-12.2l5.5-1.3c0,.4,2.3,9.9-11.7,18.4-7,4.2-265.3,166-275.9,172.6-.1,0-.2.2-.3.2Z"/>
  <path class="st0" d="M82.7,329.2l-3.1-4.8c.6-.4,64.8-45.2,85.5-74.7,17.1-24.3,18.5-42.7,20.2-64.1.6-7.5,1.2-15.3,2.5-23.7,3.3-20.9,16.4-43.1,28-55.8,4.8-5.3,9.4-9.7,13.8-13.3-16.3,2-32.2,7.2-44,11.9-9.7,8-18.7,17.6-26.8,28.6l-4.9-2.7,8.8-21.6.9-.5c.8-.5,8.2-4.4,19.3-8.8,25.9-21,57.1-32,93.2-32.6v5.7c-27.5.5-52.1,7.2-73.6,20.1,11.3-3.3,23.9-6,36.5-6.5,6.3-3.6,12-5.1,16.9-4.4,5.1.7,9.1,3.8,11.6,8.9l2.8,5.8-6.2-1.9c-7.4-2.2-15.4-3-23.5-2.8-6.2,3.8-13.2,9.9-20.5,17.9-10.6,11.7-23.5,33.2-26.6,52.8-1.3,8.2-1.9,15.8-2.5,23.3-1.7,21.3-3.2,41.3-21.2,66.9-8.6,12.2-24.8,28-48.3,46.9,79.8-46.7,246.9-144.5,254.5-148.9,7.5-4.4,7.6-10.6,7.6-10.9h5.7c0,.3,0,9.7-10.4,15.8-9.9,5.8-293.3,171.7-296.2,173.4ZM167.2,113l-1,2.5c1.2-1.3,2.3-2.5,3.5-3.7-1.1.5-1.9,1-2.5,1.3Z"/>
</svg>