<?xml version="1.0" encoding="UTF-8"?>
<svg id="Layer_1" xmlns="http://www.w3.org/2000/svg" version="1.1" viewBox="0 0 567 567">
  <!-- Generator: Adobe Illustrator 29.0.0, SVG Export Plug-In . SVG Version: 2.1.0 Build 186)  -->
  <defs>
    <style>
      .st0 {
        fill: #fff;
      }
    </style>
  </defs>
  <path class="st0" d="M98.2,480c-10.6,0-20.7-1.2-28.9-4.3-20.1-7.5-23.9-15.9-23.6-21.6.5-9.4,12.7-17.3,35-22.9,26.4-6.5,79-38.8,114-61.5-27,11.9-53.2,21.5-53.6,21.6l-2.3.8-1.2-2.1c-.1-.2-11.8-21.3-20.5-45-12.1-32.6-13-54.3-2.8-64.6,23.3-23.5,68.8-17.5,70.8-17.2l-.8,5.6c-.4,0-44.7-5.9-65.9,15.6-16.8,16.9,10,76.5,23.1,100.7,11-4.1,59.5-22.6,87.9-38.7l3,4.8c-.3.2-27.1,18.9-58.9,38.6-42.8,26.6-73.5,42.3-91.4,46.7-18.9,4.7-30.4,11.3-30.7,17.7-.3,5.2,7.2,11.2,19.9,15.9,30.1,11.3,85.4-3.6,99-10.8,16-8.4,45.9-23,80.5-40,88.6-43.3,209.9-102.6,246.8-129.9,19.4-14.3,21.2-43.4,14.7-64.4-4.8-15.6-13.9-25.8-23.2-26.1-6.6-.2-14.8,7.4-25.3,17.1-11.1,10.3-24.9,23-44,33.8-2,1.1-79.1,44.6-79.1,44.6l-1.2.7-1.3-.5c-1.7-.7-27.4-10.9-48-25.9-1.2,10.9-6.8,21.7-16.1,30.8-12.6,12.3-31.5,21.2-54.7,25.6-9.4,1.8-17.9,2.4-25.4,2.3,10.9,11.1,17,22,17.3,22.5l-5,2.8c-.1-.2-8-14.1-21.2-25.8-28.2-3-40.6-17.2-40.7-17.3l-3.6-4.5h5.7c13.9-.5,27.9,5.2,41,16.3,8.7.8,18.9.4,30.8-1.9,33.1-6.3,66.4-25.8,66.4-55-9.4-7.6-17-16.3-19.6-25.4l-1.2-4.3,4.4.7c12.4,2.1,21,12.5,22,26.2,18.2,14.1,42.9,24.6,48.7,27,9.8-5.5,76.1-42.9,77.9-43.9,18.5-10.4,32-22.9,42.9-33,11.9-11,20.4-18.9,29.3-18.6,11.9.4,22.8,12,28.4,30.1,7.1,22.8,4.8,54.6-16.8,70.6-37.3,27.6-158.9,87-247.7,130.4-34.6,16.9-64.5,31.5-80.4,39.9-10.5,5.5-44.8,15.4-74.7,15.4ZM155.8,311.6c4.4,2.8,10.9,6.1,19.9,8.2-6-3.9-12.7-6.9-19.9-8.2ZM273,243.1c2.4,4.6,6.3,9.1,10.9,13.3-1.8-6.1-5.6-10.8-10.9-13.3Z"/>
  <path class="st0" d="M269.1,343.7c-10.5,0-19.7-2.9-20.3-3.1l-5.8-1.9,47.2-29.4c-13.3-27.2-61.7-85.6-94.8-122.2l-3.9-4.3,5.8-.4c.2,0,17.1-1.4,28.2-15,5.7-6.9,8.9-15.8,9.7-26.5-21.1,4.8-38.7,10.3-52.6,16.4,8.4,12.3,20.9,11.5,28,11.1h1.1c0,0,.3,5.6.3,5.6h-1c-7.3.5-23.4,1.5-33.6-14.3-16,7.7-26.4,16.4-30.7,25.8-7.7,16.8-2.4,32.7,16.2,48.6,16.6,14.3,40.3,25.9,61.3,36.2,18.9,9.2,33.8,16.6,39.2,23.7l-4.5,3.5c-4.7-6.1-19.8-13.5-37.2-22-42.2-20.7-99.9-49-80.1-92.2,5.1-11.2,17-20.5,33.1-28.3-2.6-5.5-4.5-12.4-5.6-21.3-.3-2-.3-3.9-.3-5.7,0-20.5,16.2-37.2,36.1-37.2s32.9,13.5,35.4,32.2c.5,3.8.8,7.5.8,11,47-10.1,99-14.7,129.8-16.7,30.4-26.1,50.4-28.8,51.3-29l7.5-.9-30.4,34.1h-1.2c-.2,0-9.7.4-24.9,1.3-3.7,3.3-7.7,6.9-11.7,11-14,14-52.5,33.1-90.5,44.5-.8,10-3.9,21-9.3,32.9-.3.7-.6,1.3-.9,1.9,9.4-7.2,22.8-14.2,40.9-16.2,23.5-2.6,45.6,6.4,64,26,13.8,14.6,20.5,29.8,20.8,30.5l1,2.2-90.2,56.3c2.7,6.8,2.1,9.5,1.8,11-1.6,7.7-5.6,13.4-11.8,17-5.5,3.2-12.1,4.2-18.3,4.2ZM256.9,336.7c7.3,1.4,19.2,2.7,27.7-2.2,4.8-2.8,7.8-7.1,9.1-13.2.3-1.6,0-3.9-1.1-6.8l-35.6,22.2ZM203.1,187c7.9,8.9,28.2,31.9,47.8,56.3,26.3,32.7,38.5,51.6,44.1,62.9l85.3-53.2c-2.4-4.7-8.7-16-18.8-26.8-17.4-18.4-37.3-26.5-59.2-24.1-30,3.3-46.5,21.8-51.9,29.1-1.3,1.9-2.1,3-2.1,3.2l-4.8-3.1c.1-.2.9-1.6,2.4-3.6,5-7.8,16.7-27.8,19-48-12.6,3.5-25,6.1-36.3,7.3l-1-5.6c17.5-4.2,37.5-20.6,37.7-20.8l3.6-3,.9,4.6c.6,3,1,6.2,1,9.5,34.1-10.5,71.3-27.3,86.3-42.3,2.2-2.2,4.4-4.4,6.6-6.4-21.9,1.6-51.8,4.3-82.5,9-14.6,2.2-28.1,4.7-40.5,7.3-.7,12.7-4.4,23.2-11.2,31.4-8.7,10.6-20.2,14.7-26.8,16.2ZM265.2,168c-3.1,2.3-7.8,5.7-13.4,9,4.4-1.1,9-2.3,13.6-3.6,0-1.8,0-3.6-.2-5.4ZM205,96c-16.8,0-30.4,14.2-30.4,31.6s0,3.2.3,4.7v.2c1,8.3,2.8,14.7,5.1,19.6,15.9-7,35.1-12.7,55.6-17.4,0-3.6-.3-7.5-.8-11.5-2.1-15.8-14.6-27.2-29.7-27.2ZM413.9,96.2c-2.3.9-4.9,2-7.9,3.5-6.3,3.1-15,8.3-25.4,16.6,7.9-.4,13.5-.7,16.1-.8l17.2-19.3Z"/>
</svg>