<?xml version="1.0" encoding="UTF-8"?>
<svg id="Layer_1" xmlns="http://www.w3.org/2000/svg" version="1.1" viewBox="0 0 567 567">
  <!-- Generator: Adobe Illustrator 29.0.0, SVG Export Plug-In . SVG Version: 2.1.0 Build 186)  -->
  <defs>
    <style>
      .st0 {
        fill: #fff;
      }
    </style>
  </defs>
  <path class="st0" d="M223.2,451.8l-2.2-5.2,89.7-41.7c.9-6.8,2.6-17,4.6-28.7,4-23.7,9.6-56.1,11.8-83.3,3.1-38.4-1.7-49.8-6.3-52.6-16.9-10.3-90.8-30.4-112-33.4l.8-5.6c19.6,2.8,95.5,22.8,114.1,34.2,17.8,10.9,8.9,73.2-2.8,141.7-2.1,12.6-4,23.4-4.7,30l-.2,1.6-10,4.7c14.3-5.6,29.3-11.5,44.1-17.3,53.5-21,104-40.8,116.1-45.5,32.7-12.7,50.6-28.5,51.4-37.5l5.6.5c-1.5,17-35.3,34.6-55,42.3-12.1,4.7-62.6,24.5-116.1,45.5-55.8,21.9-113.5,44.5-128.9,50.5Z"/>
  <path class="st0" d="M186.3,460.2l-2.3-.5c-14.4-3.3-24-5.4-29.2-15.4-4.8-9.1-5.6-24.5-3-56.8,0-.8,5.8-69.8,27.3-142-1.8-3.8-2.9-7.8-3.3-11.6-1.6-15.2,6.6-28.7,19.8-32.9l5.7-1.8-2.2,5.5c-5.2,13.2-9.9,26.8-13.9,40.2,6.8,11.9,21.4,17.6,34.9,19,.8,0,1.9.2,3.1.3,32.4,3.5,55.9,3.4,70.3-.5,3.3-9.1,9.5-15.4,18.1-18.4l3.5-1.2.3,3.7c.4,5.4-1.4,10.1-5.3,13.8-3,2.9-7.1,5.1-12.1,6.7,0,.2-.1.4-.2.6-5.3,20.3,4.4,62.1,24.9,85.6,21.5,24.7,51.8,19.7,52.1,19.6l1,5.6c-1.4.2-33.6,5.7-57.3-21.5-17.2-19.7-32.1-61.7-26.7-88.3-19.5,4.3-47.3,2.2-69.1-.2-1.2-.1-2.3-.2-3.1-.3-18-1.8-29.6-9-36.3-17.7-20.1,69.8-25.6,135.1-25.7,135.9-2.5,30.7-1.8,45.8,2.3,53.7,4,7.7,11.6,9.4,25.4,12.5l2.3.5-1.3,5.5ZM309.2,252.8c-3.4,2-6.1,4.8-8.2,8.4,2-1,3.7-2.2,5.1-3.5,1.5-1.5,2.6-3.1,3.1-4.9ZM191.2,209.6c-6.8,5-10.6,14.1-9.7,23.7.1,1,.3,2,.4,3,2.8-8.9,5.9-17.9,9.2-26.7Z"/>
  <path class="st0" d="M45.8,523.4l-2.1-5.3,112.1-48.5c-11.2-.9-27.3-3.2-37.3-9.2l-2.7-1.6,1.9-2.5c48.7-64.9,101.5-169.7,133.1-232.3,3.6-7.1,6.9-13.7,10-19.7-20.1-1.6-78.8-18.6-83.6-51.1-1.3-8.6,2.1-18.1,9.6-26.7,11.7-13.5,30.8-21.9,49.8-21.9h0c2.5,0,4.5.3,6.2.8,5.4-10.8,11.4-21.9,17.6-32.1,3.9-6.4,7.5-12.4,11.2-17.2,9-11.2,21.5-15.4,31.1-10.4,5.9,3,9.8,8.9,11,16.6,1.2,7.4-.3,15.5-4.1,23-3.5,6.9-8.8,12.6-14.8,16.1-5.5,3.2-11.4,3.6-16.1,1.1-4.8-2.5-8-7.5-8.6-13.9l5.6-.5c.4,4.4,2.4,7.9,5.5,9.4,3,1.5,6.9,1.2,10.7-1,5.1-3,9.6-7.8,12.6-13.7,3.3-6.5,4.6-13.4,3.6-19.6-.9-5.8-3.8-10.2-8-12.4-7.1-3.6-17,0-24.1,8.9-3.5,4.5-7.1,10.4-10.8,16.7-6.1,10.1-12.1,21.2-17.5,31.9,1,1,1.7,2,2.1,3,1.4,3.2,5.9,13-26.1,49.1l-4.8-2.9c.1-.3,8.9-21.8,21.1-46.7-1.2-.2-2.5-.3-3.6-.3h0c-17.4,0-34.9,7.7-45.5,20-6.3,7.4-9.3,15.2-8.3,22.2,2.3,15.8,20.2,27.1,34.9,33.7,17.7,8,36.7,12.2,44.6,12.6.4,0,.9,0,1.3,0,4.1-8.1,7.7-14.9,10.6-20.3l1.8-3.3,2.7,2.7c1.1,1.1,10.8,11.1,7.3,19.1-2.2,4.9-8.4,7.4-19,7.5-3.4,6.6-7.1,14-11.2,22.1-31.2,61.9-83.3,165-131.7,230.5,15.6,7.4,43.6,7.5,43.9,7.5l1.1,5.4-50.8,22c93.4-32.7,243.3-85.3,261.1-92.3,28.5-11.1,42-20.8,42-46l.6-197c-2.3.8-4.8,1.3-7.6,1.6l-3,.2v-3c-.5-11.1,2.9-19.4,11.4-28.9l4-4.4c-.4,0-.8,0-1.1,0-6.1,3.9-57.6,36.9-78.4,36.9-.5,0-1,0-1.5,0h-.4c-19.7-1.7-36.5-7-49.5-15.5-2,10.6-8,21-11.1,25.9,5.8,2.4,19.8,7.4,37,8.9,30.3,2.5,56-6.7,76.3-27.5l4.1,4c-26.9,27.5-58.9,31-81,29.1-23.8-2-41.1-10.4-41.8-10.7l-3-1.5,1.9-2.7c.1-.2,11-15.7,12.5-29.2-7.5-5.8-13.4-12.8-17.5-20.9l-2.7-5.2,5.7,1.1c9.6,1.8,15.9,6.3,18.7,13.2,1.1,2.8,1.6,5.9,1.6,9,12.5,8.9,29.2,14.4,49.3,16.2h.4c15.4,1.4,60.7-25.7,76.8-36.2l.5-.3h.5c3.6-.8,7.2.2,10,2.7,3.6,3.2,5.8,8.6,5.5,13.4-.4,6.1-3.6,15.5-11.9,20.9l-.6,199.8c0,31-20.7,41.6-45.7,51.3-26.1,10.2-332.8,117.4-335.9,118.5ZM277.3,184.8c-2.1,4-4.6,8.6-7.2,13.9,8.2-.5,10.3-2.9,10.8-4,1.1-2.5-1.2-6.7-3.6-9.9ZM422.4,136.7c-3.3,4.9-4.8,9.8-5.1,15.4,1.9-.4,3.5-.9,5-1.6v-13.8ZM428.1,122.4v24.1c5.5-5.7,6.1-13.4,6.1-13.9.2-3-1.3-6.7-3.6-8.7-.8-.7-1.7-1.2-2.6-1.4ZM245,113.8c-5,10.2-9.4,19.7-12.8,27.4,13.3-17.5,13.7-24.7,12.8-27.4ZM282.3,122.6c2.4,3.5,5.2,6.6,8.4,9.6-.2-.6-.4-1.3-.6-1.9-1.4-3.4-3.9-5.9-7.8-7.7Z"/>
</svg>