<?xml version="1.0" encoding="utf-8"?>
<!-- Generator: Adobe Illustrator 28.3.0, SVG Export Plug-In . SVG Version: 6.00 Build 0)  -->
<svg version="1.1" id="Layer_1" xmlns="http://www.w3.org/2000/svg" xmlns:xlink="http://www.w3.org/1999/xlink" x="0px" y="0px"
	 viewBox="0 0 136.9 34" style="enable-background:new 0 0 136.9 34;" xml:space="preserve">
<style type="text/css">
	.st0{clip-path:url(#SVGID_00000044870958472464402140000005827129167455539619_);}
	.st1{fill:#003781;}
</style>
<g>
	<defs>
		<rect id="SVGID_1_" x="-443.6" y="-283" width="1024" height="600"/>
	</defs>
	<clipPath id="SVGID_00000102542101667242807790000010269558906204763573_">
		<use xlink:href="#SVGID_1_"  style="overflow:visible;"/>
	</clipPath>
	<g style="clip-path:url(#SVGID_00000102542101667242807790000010269558906204763573_);">
		<path class="st1" d="M12.5,18H7.8l2.5-8.1L12.5,18z M5.4,27L7,21.6h6.3l1.5,5.3h5.8L14.8,6.6c-0.3-1.2-1.1-1.8-2.3-1.8H4.2v1.9
			h0.7c0.9,0,1.3,0.3,1.3,1c0,0.4-0.1,0.8-0.4,1.8L0,26.9L5.4,27L5.4,27z"/>
		<path class="st1" d="M27.3,27V6.5c0-1.1-0.6-1.7-1.7-1.7h-5.1v1.9h0.3c0.9,0,1.2,0.4,1.2,1.2v19H27.3z"/>
		<path class="st1" d="M36.2,27V6.5c0-1.1-0.6-1.7-1.7-1.7h-5.1v1.9h0.3C30.6,6.7,31,7.1,31,8v19H36.2z"/>
		<path class="st1" d="M45.2,6.8c0-1.5-1.1-2.4-3-2.4c-1.9,0-3,0.9-3,2.4c0,1.5,1.1,2.4,3,2.4C44.1,9.2,45.2,8.3,45.2,6.8z M45.1,27
			V12.1c0-1.1-0.6-1.7-1.7-1.7h-5v1.9h0.3c0.9,0,1.2,0.4,1.2,1.3V27L45.1,27L45.1,27z"/>
		<path class="st1" d="M56.5,19v3.2c-0.9,0.9-1.9,1.4-2.8,1.4c-0.9,0-1.3-0.5-1.3-1.7c0-1.2,0.3-1.8,1.2-2.2
			C54.3,19.5,55.2,19.2,56.5,19z M49.5,15.1c1.7-0.8,3.6-1.3,5.1-1.3c1.4,0,1.9,0.5,1.9,1.9v0.4c-2.1,0.3-2.8,0.5-4,0.7
			c-0.7,0.2-1.3,0.4-2,0.6c-2.1,0.8-3.1,2.5-3.1,4.9c0,3.1,1.4,4.7,4.2,4.7c1,0,2-0.2,2.8-0.5c0.7-0.3,1.2-0.6,2.2-1.4v0.2
			c0,1,0.5,1.6,1.6,1.6H63v-1.8h-0.2c-0.9,0-1.2-0.4-1.2-1.5v-7.9c0-4.2-1.5-5.7-5.7-5.7c-1.4,0-2.7,0.2-4,0.5
			c-1.3,0.3-2,0.6-3.5,1.3L49.5,15.1z"/>
		<path class="st1" d="M70.6,27V15.7c0.9-1,1.8-1.4,2.8-1.4c1.1,0,1.4,0.4,1.4,2.1V27h5.2V15.7c0-2.6-0.2-3.5-1-4.4
			c-0.7-0.8-1.8-1.2-3.1-1.2c-2,0-3.4,0.6-5.4,2.4v-0.7c0-1-0.5-1.6-1.6-1.6h-4.9v1.9h0.3c0.9,0,1.2,0.4,1.2,1.3V27L70.6,27L70.6,27
			z"/>
		<path class="st1" d="M95.2,23.5H88l6.9-9.7v-3.4H84.1c-1.2,0-1.8,0.6-1.8,1.8v3h1.9v-0.3c0-0.8,0.4-1.1,1.2-1.1h3.7l-7,9.8V27h13
			L95.2,23.5L95.2,23.5z"/>
		<path class="st1" d="M122.4,26.5V7.8c0-1.5-0.5-2-2-2H116v2.1h0.3c1,0,1.2,0.2,1.2,1.4v17.2L122.4,26.5L122.4,26.5z M124.5,26.5
			h4.9V11.9c0-1.5-0.6-2-2-2h-2.9V26.5z M115.3,26.5V9.9h-2.9c-1.4,0-2,0.5-2,2v14.6L115.3,26.5L115.3,26.5z M134,17
			c0,8.3-5.9,14.3-14.1,14.3s-14.1-6-14.1-14.3c0-8.3,5.9-14.3,14.1-14.3S134,8.8,134,17z M136.9,17c0-9.7-7.3-17-17-17
			s-17,7.3-17,17c0,9.7,7.3,17,17,17C129.6,34,136.9,26.7,136.9,17z"/>
	</g>
</g>
</svg>
