<?xml version="1.0" encoding="UTF-8" standalone="no"?>
<!-- Created with Inkscape (http://www.inkscape.org/) -->
<svg
   xmlns:dc="http://purl.org/dc/elements/1.1/"
   xmlns:cc="http://web.resource.org/cc/"
   xmlns:rdf="http://www.w3.org/1999/02/22-rdf-syntax-ns#"
   xmlns:svg="http://www.w3.org/2000/svg"
   xmlns="http://www.w3.org/2000/svg"
   xmlns:sodipodi="http://sodipodi.sourceforge.net/DTD/sodipodi-0.dtd"
   xmlns:inkscape="http://www.inkscape.org/namespaces/inkscape"
   id="svg2226"
   sodipodi:version="0.32"
   inkscape:version="0.45.1"
   width="5901.4717"
   height="2593.7227"
   version="1.0"
   sodipodi:docbase="C:\Users\Chris\Desktop"
   sodipodi:docname="PandG.svg"
   inkscape:output_extension="org.inkscape.output.svg.inkscape">
  <metadata
     id="metadata2231">
    <rdf:RDF>
      <cc:Work
         rdf:about="">
        <dc:format>image/svg+xml</dc:format>
        <dc:type
           rdf:resource="http://purl.org/dc/dcmitype/StillImage" />
      </cc:Work>
    </rdf:RDF>
  </metadata>
  <defs
     id="defs2229" />
  <sodipodi:namedview
     inkscape:window-height="974"
     inkscape:window-width="1280"
     inkscape:pageshadow="2"
     inkscape:pageopacity="0.0"
     guidetolerance="10.0"
     gridtolerance="10.0"
     objecttolerance="10.0"
     borderopacity="1.0"
     bordercolor="#666666"
     pagecolor="#ffffff"
     id="base"
     inkscape:zoom="0.08"
     inkscape:cx="4704.9692"
     inkscape:cy="-201.08758"
     inkscape:window-x="-8"
     inkscape:window-y="-8"
     inkscape:current-layer="svg2226" />
  <path
     style="fill:#0000cc;fill-opacity:1"
     d="M 8.7166,2564.4726 C 13.5107,2548.3851 18.1668,2532.6924 19.0636,2529.5999 L 20.694,2523.9771 L 47.953,2510.4158 C 62.9455,2502.9571 80.5071,2494.3775 86.9789,2491.3501 C 128.8808,2471.7487 165.3431,2439.3496 194.0361,2396.2226 C 214.309,2365.7514 237.4809,2305.6933 269.7902,2199.879 C 277.5577,2174.4401 762.4671,512.27872 780.3708,449.72262 C 807.5622,354.71472 820.5955,281.22812 816.7288,244.72258 C 813.1752,211.17383 799.8092,183.77876 774.7454,158.67352 C 765.6674,149.58056 744.1037,132.06559 734.9246,126.32943 C 732.5664,124.85579 721.5414,115.7164 710.4246,106.01967 C 699.3077,96.322941 690.1059,88.320511 689.976,88.236501 C 689.6107,88.000151 692.7571,24.649111 693.3184,20.939461 L 693.8152,17.656331 L 1176.5136,18.013571 C 1523.1271,18.270081 1665.4145,18.695751 1681.2121,19.523411 C 1730.0532,22.082261 1743.3097,22.883301 1768.2121,24.780501 C 1951.8121,38.768141 2086.7471,72.892911 2180.2121,128.97438 C 2343.2195,226.78314 2435.1794,370.21572 2453.1752,554.72262 C 2466.0279,686.49962 2442.907,814.44332 2385.5229,929.08862 C 2336.2004,1027.6281 2260.1612,1120.9848 2161.7121,1203.871 C 2047.4979,1300.0301 1905.1326,1368.5218 1743.3304,1405.1537 C 1658.5858,1424.3398 1577.2164,1434.6766 1478.4194,1438.807 C 1446.3956,1440.1458 1344.8474,1439.4978 1318.2121,1437.7847 C 1238.6302,1432.6662 1154.8986,1423.9976 1077.2121,1412.8343 C 1066.2121,1411.2536 1056.9502,1410.2443 1056.63,1410.5915 C 1056.0638,1411.2054 854.7345,2102.7917 842.0421,2147.7226 C 817.7893,2233.5766 803.7159,2305.595 803.7129,2343.8666 C 803.7086,2399.6436 822.9481,2444.5669 859.767,2474.7495 C 865.4518,2479.4097 873.2776,2486.1081 877.1576,2489.6349 C 885.4257,2497.1502 885.1621,2497.0281 924.9621,2511.773 C 941.8746,2518.0386 955.7121,2523.5435 955.7121,2524.0061 C 955.7121,2524.4686 950.9296,2538.4316 945.0842,2555.0348 C 939.2389,2571.6381 933.7966,2587.1351 932.9902,2589.4726 L 931.5241,2593.7226 L 465.7621,2593.7226 L 0,2593.7226 L 8.7166,2564.4726 z M 1345.0534,1277.2269 C 1446.7081,1268.2594 1532.111,1232.1045 1606.2121,1166.6665 C 1648.5687,1129.2617 1688.1942,1080.0889 1723.4619,1021.1667 C 1746.5074,982.66422 1772.8898,931.16922 1789.0115,893.22262 C 1827.6964,802.16702 1850.9307,709.94772 1859.1784,614.72262 C 1867.8993,514.03312 1858.9144,432.99692 1831.6847,366.75412 C 1814.714,325.46842 1793.5049,294.34732 1760.0945,261.7057 C 1702.8484,205.77703 1630.803,175.89848 1535.7121,168.65023 C 1509.5395,166.65523 1411.4288,168.95952 1408.467,171.63878 C 1407.3861,172.61652 1094.6349,1262.9787 1095.2569,1263.6007 C 1096.7542,1265.0981 1182.1474,1273.6719 1220.7121,1276.197 C 1253.9318,1278.3721 1252.5021,1278.3255 1292.2121,1278.5285 C 1317.2473,1278.6565 1333.3416,1278.2601 1345.0534,1277.2269 z M 4551.7121,2593.0428 C 4381.2176,2589.3028 4230.9483,2554.4738 4104.2121,2489.3225 C 3957.6744,2413.9918 3836.493,2289.8673 3739.4706,2115.7226 C 3663.7329,1979.7816 3617.092,1826.6567 3600.271,1658.7226 C 3586.7103,1523.3375 3592.2483,1373.6325 3615.8081,1238.7226 C 3658.9991,991.39862 3765.3268,767.34772 3931.1597,574.22262 C 3979.4941,517.93342 4040.0131,457.07312 4099.2121,405.22212 C 4324.9567,207.49802 4589.999,77.420201 4870.2121,26.829691 C 4958.1769,10.948261 5034.2005,3.3058311 5131.3335,0.57990109 C 5204.2718,-1.4670389 5284.4438,1.9745111 5346.2121,9.8040111 C 5386.9159,14.963461 5453.2498,30.176701 5561.7121,59.227531 C 5623.837,75.867211 5653.3777,82.740231 5682.7121,87.379671 C 5699.5388,90.040931 5736.6394,89.780741 5752.7928,86.888181 C 5785.9273,80.954831 5811.3461,64.354171 5835.3477,32.972581 L 5840.1279,26.722581 L 5871.027,26.722581 C 5895.3297,26.722581 5901.826,26.989431 5901.4571,27.972581 C 5901.1991,28.660081 5867.5219,166.36626 5826.6188,333.98632 L 5752.2495,638.75002 L 5720.7308,638.48632 L 5689.2121,638.22262 L 5688.4944,622.22262 C 5684.5962,535.31582 5672.618,472.27122 5651.8255,429.22262 C 5637.3278,399.20682 5625.4137,383.42932 5581.2207,335.72262 C 5571.2856,324.99762 5555.477,307.44762 5546.0905,296.72262 C 5492.1759,235.11998 5441.0783,199.07873 5370.4462,172.83341 C 5316.1008,152.63985 5254.4731,142.53881 5185.2121,142.47274 C 5153.4049,142.4424 5134.1059,143.59274 5105.2121,147.24124 C 4967.3263,164.65247 4826.2955,229.7587 4689.7121,339.05492 C 4545.6781,454.31322 4420.0106,625.79712 4315.3388,849.91872 C 4181.5759,1136.3299 4117.589,1437.1568 4123.8412,1750.2226 C 4127.9308,1955.0007 4169.3097,2117.0217 4248.4726,2238.2226 C 4277.0704,2282.0066 4320.136,2330.7416 4360.2121,2364.6719 C 4423.3061,2418.0903 4493.7673,2450.9375 4568.2121,2461.6362 C 4610.592,2467.7268 4649.7022,2466.9123 4690.2121,2459.0957 C 4716.5976,2454.0044 4749.6769,2444.723 4778.2121,2434.4047 C 4793.6618,2428.8181 4822.2088,2417.4356 4829.1214,2414.1057 L 4833.0308,2412.2226 L 4919.861,2084.7226 C 4967.6177,1904.5976 5011.3847,1738.5476 5017.1212,1715.7226 C 5044.8847,1605.2524 5053.4358,1551.6114 5048.2798,1520.2654 C 5043.6952,1492.3932 5032.0723,1471.034 5001.7308,1434.7226 C 4996.4457,1428.3976 4987.8122,1417.7876 4982.5452,1411.1448 C 4977.2783,1404.502 4970.9987,1397.4677 4968.5905,1395.5129 C 4956.2828,1385.5226 4941.9029,1382.1282 4906.6016,1380.8804 L 4887.9911,1380.2226 L 4896.144,1346.2226 L 4904.2969,1312.2226 L 5320.823,1311.9714 L 5737.349,1311.7202 L 5730.0813,1345.319 C 5726.0842,1363.7983 5722.6714,1379.3447 5722.4975,1379.8665 C 5722.3235,1380.3884 5715.1123,1383.9005 5706.4726,1387.6714 C 5688.8589,1395.3589 5686.3386,1396.7583 5675.7121,1404.7516 C 5671.5871,1407.8545 5663.7121,1413.2345 5658.2121,1416.7073 C 5631.8763,1433.3362 5613.3929,1451.5566 5595.711,1478.319 C 5575.6767,1508.642 5565.0661,1539.8831 5536.6471,1652.2226 C 5530.6642,1675.8726 5480.2243,1864.467 5424.5584,2071.3214 L 5323.3475,2447.4201 L 5296.7798,2458.0196 C 5125.6897,2526.2777 4950.8093,2568.2718 4767.2121,2585.1848 C 4698.0301,2591.5578 4617.6424,2594.4891 4551.7121,2593.0428 z M 2163.2121,2582.0484 C 2015.7509,2576.0977 1906.6831,2528.0489 1823.4411,2432.3655 C 1777.5462,2379.6111 1748.0065,2318.5921 1737.2325,2254.2872 C 1733.0365,2229.2437 1732.2671,2218.6761 1732.3497,2187.2226 C 1732.5579,2107.8886 1747.5501,2041.6535 1779.6565,1978.2226 C 1801.7918,1934.4912 1831.2547,1895.9904 1876.8694,1851.1892 C 1940.8065,1788.3923 2021.4694,1728.2204 2117.7121,1671.5282 C 2190.8469,1628.4478 2287.266,1579.0622 2385.7121,1534.2593 C 2398.6371,1528.3772 2409.5421,1523.2475 2409.9455,1522.8601 C 2410.3489,1522.4727 2409.3395,1511.5958 2407.7024,1498.6892 C 2401.4895,1449.7069 2395.5806,1392.1603 2392.5092,1350.7226 C 2390.7643,1327.1806 2390.764,1243.2336 2392.5088,1223.7226 C 2399.4386,1146.2307 2413.0528,1085.605 2436.9719,1025.7226 C 2469.7851,943.57322 2515.7425,875.66792 2582.8273,810.21112 C 2692.4468,703.25162 2823.2393,650.32682 2968.7121,654.06392 C 3071.2445,656.69792 3145.9656,687.01462 3207.2121,750.83072 C 3239.6202,784.59862 3263.2477,825.63742 3273.7648,866.42712 C 3280.9647,894.35112 3283.5331,922.94052 3281.8139,956.02462 C 3278.7604,1014.7845 3267.3154,1062.0896 3244.8702,1108.7226 C 3225.1003,1149.7974 3199.6521,1184.3632 3157.7342,1227.0776 C 3099.5493,1286.3681 3029.7573,1337.5096 2935.1893,1390.152 C 2908.4095,1405.0593 2847.2194,1435.4433 2816.2121,1449.2302 C 2803.0121,1455.0994 2789.882,1460.9465 2787.0341,1462.2238 L 2781.8561,1464.546 L 2786.2073,1478.3843 C 2834.8745,1633.1629 2858.3914,1705.7863 2880.7319,1770.2899 C 2905.9819,1843.1939 2921.6573,1881.0686 2951.2699,1940.7226 C 2965.6073,1969.6052 2972.6555,1983.0297 2989.0322,2012.6476 L 2998.114,2029.0726 L 3003.9768,2022.6476 C 3040.7025,1982.3997 3078.4577,1928.1894 3099.4173,1885.6104 C 3113.7805,1856.4318 3127.7429,1818.6717 3135.6474,1787.6294 C 3151.8609,1723.9561 3143.6093,1678.4069 3109.7578,1644.718 C 3094.8143,1629.8463 3076.3997,1619.4131 3049.5842,1610.6252 L 3033.9563,1605.5037 L 3042.0716,1581.1132 L 3050.1869,1556.7226 L 3310.9495,1556.7226 C 3454.3689,1556.7226 3571.7121,1557.0989 3571.7121,1557.5589 C 3571.7121,1558.0188 3567.3132,1568.9313 3561.9367,1581.8089 L 3552.1614,1605.2226 L 3546.1867,1607.014 C 3495.6136,1622.1772 3468.6191,1634.8682 3438.021,1657.8662 C 3402.0035,1684.9376 3337.251,1761.8193 3237.2688,1896.2226 C 3179.08,1974.4442 3121.901,2043.416 3063.5365,2105.7861 L 3049.8608,2120.4003 L 3067.0365,2143.3221 C 3105.1701,2194.2136 3135.5526,2229.5926 3171.3395,2264.7781 C 3226.3124,2318.8271 3271.6604,2347.8052 3319.7121,2359.5905 C 3357.3267,2368.8159 3400.5152,2368.858 3433.1262,2359.701 C 3458.1204,2352.6827 3482.3446,2338.6375 3515.7121,2311.8176 L 3528.2121,2301.7704 L 3549.9621,2301.7465 C 3561.9246,2301.7334 3571.7121,2301.9738 3571.7121,2302.2808 C 3571.7121,2303.4853 3554.381,2336.9643 3547.1528,2349.7226 C 3530.9314,2378.3549 3505.8026,2413.8481 3485.2038,2437.2226 C 3422.3688,2508.5249 3339.0889,2556.2039 3246.0356,2574.1502 C 3179.6541,2586.9525 3100.6724,2584.7143 3034.7121,2568.1617 C 2970.6499,2552.0853 2919.5728,2525.7262 2858.7379,2477.3474 C 2831.9586,2456.0513 2795.2076,2422.3578 2771.2626,2397.1497 L 2757.7253,2382.8983 L 2727.4687,2403.1017 C 2676.8552,2436.898 2636.8384,2460.0098 2584.6025,2485.6146 C 2474.1521,2539.7545 2367.6828,2570.2958 2256.7121,2579.6715 C 2228.4154,2582.0623 2188.6231,2583.0738 2163.2121,2582.0484 z M 2472.2121,2391.6991 C 2518.7523,2387.8525 2569.8261,2371.9184 2629.2121,2342.7179 C 2660.0477,2327.5558 2703.7121,2302.8885 2703.7121,2300.6307 C 2703.7121,2300.0709 2701.973,2297.0501 2699.8475,2293.9177 C 2688.6813,2277.4625 2663.2214,2234.7935 2647.2523,2205.7717 C 2559.534,2046.3556 2473.6368,1818.1651 2434.7404,1641.2226 C 2433.0478,1633.5226 2431.4674,1626.6715 2431.2286,1625.9979 C 2430.1169,1622.863 2358.8201,1666.3996 2325.2121,1690.7357 C 2248.1428,1746.5429 2200.102,1800.1013 2172.5485,1860.9331 C 2150.5652,1909.4671 2139.707,1962.7892 2139.7145,2022.1725 C 2139.7268,2118.1307 2167.163,2200.5662 2221.7716,2268.7226 C 2259.8943,2316.3031 2309.7163,2354.6314 2358.7121,2374.0715 C 2394.9095,2388.4336 2435.482,2394.7349 2472.2121,2391.6991 z M 2768.342,1354.4726 C 2822.8317,1314.5077 2864.9604,1274.8594 2898.24,1232.2226 C 2927.5013,1194.734 2955.625,1141.345 2971.6912,1092.7857 C 3002.1672,1000.6736 3001.9793,893.90572 2971.2285,829.94982 C 2954.6821,795.53632 2931.4769,774.01062 2901.6001,765.36072 C 2858.3616,752.84242 2810.4653,766.58322 2782.0408,799.66062 C 2738.2987,850.56282 2718.2387,942.74362 2722.5456,1073.0564 C 2725.5767,1164.768 2732.5926,1224.7979 2754.7929,1348.9726 C 2756.0466,1355.9851 2757.3839,1361.7226 2757.7647,1361.7226 C 2758.1455,1361.7226 2762.9053,1358.4601 2768.342,1354.4726 z "
     id="path2245" />
</svg>
